<?xml version="1.0" encoding="UTF-8" standalone="no"?>
<!DOCTYPE svg PUBLIC "-//W3C//DTD SVG 1.1//EN" "http://www.w3.org/Graphics/SVG/1.1/DTD/svg11.dtd">
<svg xmlns:svg="http://www.w3.org/2000/svg" xmlns="http://www.w3.org/2000/svg" version="1.1" width="142.39" height="63.44" id="svg2">
  <defs id="defs4"/>
  <path d="m 5.922,46.1263 c -1.231,0.735 -3.702,2.3512 -3.704,5.3028 0,2.653 2.27,4.341 4.884,4.338 2.484,0 3.998,-1.621 4.608,-2.511 L 5.922,46.1263 z m 3.408,-5 c 10e-4,-1.2575 -1.029,-2.355 -2.559,-2.3612 -1.451,-0.013 -2.559,0.9437 -2.559,2.3324 0,1.4988 1.406,3.0688 1.93,3.7151 1.079,-0.675 3.176,-1.785 3.188,-3.6863 m 4.62,14.9428 -1.58,-2.029 c -0.828,1.107 -2.598,2.666 -5.309,2.674 -3.479,0 -5.909,-2.399 -5.907,-5.323 0,-2.9473 1.932,-4.6061 4.179,-6.0335 -0.8,-1.0325 -2.187,-2.53 -2.186,-4.3575 0.001,-1.8551 1.659,-3.1763 3.666,-3.1738 2.23,0 3.555,1.6812 3.557,3.29 0,2.2487 -2.002,3.39 -3.657,4.4275 l 5.54,6.8033 c 0.562,-1.01 0.872,-2.778 0.734,-3.837 l 1.003,0 c 0.142,1.467 -0.318,3.44 -1.038,4.657 l 2.384,2.903 -1.386,-10e-4 z" id="path3400" style="fill:#231f20;"/>
  <path d="M 10.809,11.7563 C 10.63,10.0913 9.556,8.5025 7.79,8.5013 c -2.024,0 -3.151,1.2013 -3.154,3.2238 0,4.2512 7.681,2.9775 7.676,9.1237 0,3.5338 -2.924,5.375 -6.203,5.3713 -1.434,0 -2.816,-0.5138 -4.07,-1.1551 C 1.911,23.7588 1.734,22.4776 1.606,21.1726 l 0.718,-0.1538 c 0.305,2.1775 1.532,4.0738 3.966,4.075 1.741,0 3.15,-1.0975 3.153,-2.9162 0,-4.5325 -7.527,-3.1313 -7.522,-9.3025 0,-3.3288 2.362,-5.2988 5.664,-5.295 0.718,0 2.894,0.2837 3.688,0.3862 0,1.2038 0.1,2.4338 0.253,3.6625 l -0.717,0.1275 z" id="path3404" style="fill:#231f20;"/>
  <path d="m 16.521,9.2526 c -1.921,0 -1.997,0.4588 -2.384,2.3275 l -0.767,0 c 0.102,-0.7175 0.231,-1.4338 0.309,-2.1763 0.102,-0.7174 0.154,-1.4337 0.154,-2.1762 l 0.615,0 c 0.204,0.7687 0.846,0.7425 1.537,0.7438 l 13.213,0.012 c 0.692,0 1.332,-0.025 1.384,-0.7926 l 0.614,0.1025 c -0.103,0.6913 -0.206,1.3825 -0.284,2.0738 -0.05,0.6912 -0.05,1.3825 -0.05,2.075 l -0.769,0.28 C 30.043,10.7746 29.916,9.2646 28.2,9.2621 l -4.2,0 -0.01,13.6237 c -10e-4,1.9725 0.895,2.2037 2.124,2.2037 l 0.486,0 0,0.7688 c -0.999,0 -2.791,-0.105 -4.175,-0.105 -1.536,0 -3.329,0.099 -4.328,0.097 l 0,-0.7675 0.486,0 c 1.409,0 2.125,-0.1262 2.127,-2.1488 l 0.01,-13.675 -4.2,0 z" id="path3408" style="fill:#231f20;"/>
  <path d="m 35.88,10.8576 -0.05,0 -2.389,7.245 4.79,0 -2.35,-7.2488 z m -3.749,11.3413 c -0.257,0.87 -0.565,1.5362 -0.565,1.9962 0,0.7688 1.074,0.8975 1.919,0.8988 l 0.283,0 0,0.7675 c -1.024,-0.051 -2.073,-0.1038 -3.097,-0.1038 -0.923,0 -1.845,0.049 -2.766,0.1 l 0,-0.7687 0.153,0 c 0.999,0 1.845,-0.5875 2.23,-1.6626 l 4.108,-11.7499 c 0.333,-0.9475 0.796,-2.2275 0.95,-3.175 0.82,-0.2813 1.845,-0.7925 2.331,-1.0988 0.08,-0.026 0.129,-0.051 0.205,-0.051 0.08,0 0.129,0 0.18,0.076 0.08,0.2063 0.152,0.4363 0.23,0.6413 l 4.7,13.3962 c 0.306,0.8975 0.612,1.845 0.945,2.6138 0.306,0.7175 0.844,1.025 1.689,1.025 l 0.154,0 0,0.7687 c -1.151,-0.053 -2.304,-0.1037 -3.534,-0.105 -1.255,0 -2.535,0.049 -3.841,0.099 l 0,-0.7688 0.281,0 c 0.589,0 1.587,-0.1012 1.589,-0.7412 0,-0.3338 -0.23,-1.025 -0.512,-1.845 l -0.996,-2.9713 -5.812,0 -0.822,2.6625 z" id="path3412" style="fill:#231f20;"/>
  <path d="m 63.424,20.8438 0.05,-0.051 0,-9.6026 c 0,-2.1 -1.458,-2.4087 -2.225,-2.4099 l -0.564,0 0,-0.7688 c 1.202,0 2.381,0.105 3.584,0.1063 1.049,0 2.1,-0.1013 3.149,-0.1 l 0,0.7687 -0.385,0 c -1.075,0 -2.279,0.2025 -2.281,3.25 l -0.01,11.6525 c 0,0.8962 0.02,1.7925 0.151,2.5862 l -0.972,0 -13.176,-14.7099 -0.01,10.5499 c 0,2.2276 0.434,2.9963 2.405,2.9976 l 0.435,0 0,0.7687 c -1.101,0 -2.203,-0.105 -3.304,-0.1062 -1.152,0 -2.33,0.1013 -3.482,0.099 l 0,-0.7675 0.358,0 c 1.768,0 2.307,-1.2013 2.308,-3.25 l 0.01,-10.7801 C 49.466,9.6417 48.288,8.7705 47.136,8.7693 l -0.333,0 0,-0.7688 c 0.973,0 1.971,0.1038 2.945,0.105 0.768,0 1.51,-0.1013 2.279,-0.1 l 11.385,12.84 z" id="path3416" style="fill:#231f20;"/>
  <path d="m 74.049,22.9539 c 0,1.7925 0.817,2.0238 2.661,2.025 4.354,0.01 6.61,-3.63 6.614,-7.5737 0,-6.7613 -3.424,-8.4538 -7.521,-8.4575 -0.589,0 -1.178,0.076 -1.741,0.1262 l -0.01,13.88 z m -5.534,2.1713 0.359,0 c 0.922,0 1.895,-0.1275 1.896,-1.4587 l 0.01,-13.4188 c 0,-1.3312 -0.973,-1.46 -1.894,-1.4612 l -0.359,0 0,-0.7688 c 0.768,0 2.458,0.105 4.097,0.1063 1.64,0 3.022,-0.1 4.123,-0.099 6.299,0.012 10.163,3.5438 10.158,8.895 0,5.1225 -4.31,9.2925 -9.508,8.98 -1.127,-0.051 -2.92,-0.105 -4.661,-0.1062 -1.741,0 -3.558,0.099 -4.225,0.099 l 0,-0.7687 z" id="path3420" style="fill:#231f20;"/>
  <path d="m 93.677,10.9101 -0.05,0 -2.389,7.245 4.789,0 -2.349,-7.2488 z m -3.75,11.3413 c -0.256,0.87 -0.564,1.5362 -0.565,1.9962 0,0.7688 1.075,0.8975 1.92,0.8987 l 0.283,0 0,0.7675 c -1.024,-0.051 -2.073,-0.1037 -3.098,-0.1037 -0.922,0 -1.844,0.049 -2.765,0.099 l 0,-0.7675 0.153,0 c 0.999,0 1.845,-0.5876 2.23,-1.6626 l 4.108,-11.7499 c 0.334,-0.9476 0.796,-2.2275 0.95,-3.1751 0.82,-0.2812 1.845,-0.7924 2.331,-1.0987 0.08,-0.026 0.129,-0.051 0.205,-0.051 0.08,0 0.128,0 0.18,0.078 0.08,0.2038 0.153,0.4351 0.229,0.64 l 4.7,13.3976 c 0.307,0.8962 0.614,1.8437 0.946,2.6124 0.306,0.7175 0.844,1.0251 1.689,1.0251 l 0.152,0 0,0.7675 c -1.152,-0.052 -2.303,-0.1038 -3.534,-0.105 -1.253,0 -2.534,0.049 -3.841,0.099 l 0,-0.7688 0.281,0 c 0.589,0 1.589,-0.1012 1.589,-0.7412 0,-0.3338 -0.23,-1.0251 -0.512,-1.845 l -0.995,-2.97 -5.813,-0.01 -0.823,2.6626 z" id="path3424" style="fill:#231f20;"/>
  <path d="m 110.059,16.7114 1.255,0 c 2.561,0 3.945,-0.97 3.947,-3.9912 0,-2.2787 -1.456,-3.74 -3.735,-3.7425 -0.768,0 -1.101,0.076 -1.459,0.1012 l 0,7.6313 z m -3.271,-5.9438 c 0,-1.8687 -1.024,-1.9475 -1.818,-1.9475 l -0.46,0 0,-0.7675 c 0.819,0 2.408,0.1037 3.97,0.105 1.536,0 2.765,-0.099 4.123,-0.098 3.226,0 6.094,0.8763 6.091,4.5112 0,2.305 -1.541,3.7126 -3.564,4.5038 l 4.373,6.56 c 0.716,1.0762 1.227,1.385 2.482,1.54 l 0,0.7675 c -0.845,0 -1.665,-0.105 -2.511,-0.105 -0.794,0 -1.613,0.1013 -2.406,0.1 -1.969,-2.5875 -3.657,-5.355 -5.319,-8.3013 l -1.691,0 0,5.48 c 0,1.9712 0.921,2.05 2.1,2.05 l 0.46,0 0,0.7687 c -1.458,0 -2.943,-0.105 -4.403,-0.1062 -1.229,0 -2.433,0.1 -3.714,0.099 l 0,-0.7675 0.461,0 c 0.948,0 1.819,-0.4338 1.819,-1.3813 l 0.01,-13.0088 z" id="path3436" style="fill:#231f20;"/>
  <path d="m 128.467,23.0026 c 0,1.7925 0.817,2.0238 2.661,2.025 4.353,0 6.61,-3.63 6.614,-7.5737 0,-6.76 -3.424,-8.4538 -7.521,-8.4576 -0.589,0 -1.179,0.076 -1.743,0.1263 l -0.01,13.88 z m -5.534,2.1725 0.359,0 c 0.922,0 1.895,-0.1262 1.896,-1.4587 l 0.01,-13.4175 c 0,-1.3326 -0.973,-1.4613 -1.895,-1.4625 l -0.358,0 0,-0.7688 c 0.768,0 2.458,0.105 4.097,0.1063 1.638,0 3.021,-0.099 4.123,-0.099 6.299,0.013 10.163,3.5438 10.158,8.8963 0,5.1212 -4.31,9.2912 -9.509,8.9787 -1.127,-0.051 -2.918,-0.1037 -4.66,-0.1062 -1.742,0 -3.56,0.099 -4.226,0.099 l 0,-0.7675 z" id="path3440" style="fill:#231f20;"/>
  <path d="m 23.024,53.3061 c 0,2.074 1.125,2.126 2.431,2.127 l 0.41,0 -10e-4,0.767 c -1.306,0 -2.586,-0.105 -3.892,-0.106 -1.409,0 -2.792,0.1 -4.252,0.1 l 0,-0.769 0.409,0 c 0.768,0 1.613,-0.02 1.615,-2.072 l 0.01,-12.2415 c 10e-4,-1.7162 -0.485,-2.0238 -1.715,-2.0238 l -0.308,0 10e-4,-0.7687 c 0.923,0 2.279,0.105 3.586,0.1063 1.332,0 2.586,-0.1001 3.738,-0.099 3.483,0 6.018,1.1575 6.014,4.8963 0,2.995 -2.13,4.9137 -4.946,5.1924 -0.795,0.051 -1.46,0.051 -2.05,0.05 l 0,-0.7687 0.537,0 c 2.076,0 3.024,-1.8412 3.027,-4.3762 0,-2.4587 -1.226,-4.0738 -3.864,-4.0763 l -0.742,0 -0.01,14.0592 z" id="path3452" style="fill:#231f20;"/>
  <path d="m 42.254,55.4751 c 4.968,0 5.843,-4.374 5.846,-8.1137 0,-3.7375 -2.016,-8.2726 -6.267,-8.2763 -4.481,0 -5.816,3.99 -5.819,7.4212 0,4.5838 2.091,8.9648 6.24,8.9688 M 41.885,37.9588 c 5.455,0 9.805,3.3888 9.8,8.8438 0,5.8895 -4.233,9.8035 -9.689,9.7985 -5.428,0 -9.573,-3.696 -9.568,-9.2023 0,-5.3262 4.131,-9.4449 9.457,-9.44" id="path3456" style="fill:#231f20;"/>
  <path d="m 63.611,55.4941 c 4.967,0 5.842,-4.374 5.846,-8.1125 0,-3.7387 -2.016,-8.2738 -6.267,-8.2775 -4.482,0 -5.816,3.99 -5.819,7.4213 0,4.5837 2.091,8.9647 6.24,8.9687 M 63.242,37.9779 c 5.455,0 9.805,3.3887 9.8,8.8437 0,5.8905 -4.234,9.8035 -9.689,9.7985 -5.428,0 -9.573,-3.696 -9.568,-9.201 0,-5.3275 4.131,-9.4462 9.457,-9.4412" id="path3460" style="fill:#231f20;"/>
  <path d="m 80.238,47.0326 1.255,0 c 2.561,0 3.945,-0.9688 3.947,-3.9913 0,-2.2787 -1.456,-3.74 -3.735,-3.7425 -0.768,0 -1.102,0.076 -1.459,0.1013 l 0,7.6312 z m -3.273,-5.9437 c 0,-1.8688 -1.022,-1.9475 -1.816,-1.9475 l -0.461,0 0,-0.7675 c 0.819,0 2.406,0.1037 3.969,0.1063 1.536,0 2.766,-0.1001 4.122,-0.1001 3.228,0 6.094,0.8775 6.092,4.5126 0,2.3049 -1.54,3.7125 -3.564,4.5049 l 4.372,6.5585 c 0.718,1.078 1.229,1.384 2.484,1.539 l 0,0.769 c -0.845,0 -1.664,-0.104 -2.509,-0.105 -0.794,0 -1.614,0.101 -2.407,0.101 -1.97,-2.589 -3.658,-5.356 -5.319,-8.3024 l -1.691,0 0,5.4804 c 0,1.973 0.921,2.05 2.098,2.05 l 0.462,0 0,0.769 c -1.46,0 -2.945,-0.106 -4.405,-0.108 -1.228,0 -2.432,0.101 -3.712,0.101 l 0,-0.769 0.46,0 c 0.948,0 1.819,-0.434 1.82,-1.381 l 0.01,-13.0096 z" id="path3464" style="fill:#231f20;"/>
  <path d="m 91.277,44.8406 c 1.128,-0.2038 2.638,-0.9188 2.64,-2.175 0,-0.7675 -0.564,-0.9225 -1.101,-1.1275 -0.536,-0.205 -1.075,-0.4613 -1.074,-1.4088 0,-1.1012 0.846,-1.7412 1.871,-1.74 1.484,0 2.253,1.2825 2.252,2.665 0,2.4338 -2.078,3.9676 -4.23,4.555 l -0.358,-0.7687 z" id="path3468" style="fill:#231f20;"/>
  <path d="m 107.386,42.1919 c -0.178,-1.665 -1.251,-3.2537 -3.019,-3.255 -2.024,0 -3.151,1.2013 -3.152,3.2238 0,4.2512 7.68,2.9775 7.674,9.1234 0,3.534 -2.924,5.375 -6.202,5.372 -1.435,0 -2.816,-0.514 -4.071,-1.157 -0.126,-1.305 -0.304,-2.586 -0.431,-3.892 l 0.717,-0.153 c 0.305,2.177 1.533,4.073 3.964,4.075 1.742,0 3.151,-1.098 3.154,-2.916 0,-4.5324 -7.527,-3.131 -7.522,-9.3025 0,-3.3287 2.362,-5.2987 5.666,-5.2962 0.716,0 2.893,0.285 3.687,0.3875 0,1.2037 0.1,2.4325 0.252,3.6625 l -0.717,0.1275 z" id="path3472" style="fill:#231f20;"/>
  <path d="m 51.974,2.3192 -51.035,0 0,-0.9462 51.035,0 0,0.9462 z m 0,30.67 -51.035,0 0,-0.9475 51.035,0 0,0.9475 z m 0,29.8249 -51.035,0 0,-0.946 51.035,0 0,0.946 z" id="path3478" style="fill:#ed1b2e;"/>
  <metadata id="metadata10467"/>
</svg>