<?xml version="1.0" encoding="UTF-8" standalone="no"?>
<!-- Created with Inkscape (http://www.inkscape.org/) -->

<svg
   xmlns:dc="http://purl.org/dc/elements/1.1/"
   xmlns:cc="http://creativecommons.org/ns#"
   xmlns:rdf="http://www.w3.org/1999/02/22-rdf-syntax-ns#"
   xmlns:svg="http://www.w3.org/2000/svg"
   xmlns="http://www.w3.org/2000/svg"
   version="1.1"
   width="280"
   height="200"
   viewBox="0 0 224 160"
   id="svg2">
  <metadata
     id="metadata152">
    <rdf:RDF>
      <cc:Work
         rdf:about="">
        <dc:format>image/svg+xml</dc:format>
        <dc:type
           rdf:resource="http://purl.org/dc/dcmitype/StillImage" />
        <dc:title></dc:title>
      </cc:Work>
    </rdf:RDF>
  </metadata>
  <defs
     id="defs150" />
  <path
     d="m 0,62.23158 224,0 L 224,97.6 0,97.6 0,62.23158 z"
     id="path4"
     style="fill:#fbfbfa" />
  <path
     d="m 6.584421,65.82737 c 4.161684,-3.51916 11.424,-1.72127 16.652629,-2.07495 7.40379,-0.0236 17.74316,-2.74105 22.77727,4.35031 4.16168,1.29685 8.5061,5.87706 12.93894,2.97095 6.26611,-4.39747 16.36379,-1.06105 18.27369,6.47242 1.53852,6.15411 0.7781,15.40295 -6.09516,18.06737 -6.08926,2.62905 -12.432,-1.59747 -18.60379,0.34779 -4.928,1.1259 -9.856,-0.7781 -14.78989,0.42442 -8.73011,-3.05937 -17.949478,2.49937 -26.526321,-1.16716 -2.770526,-1.12 -5.417263,-6.16 -2.517052,-8.26442 0.147368,1.01979 0.300631,2.04548 0.636631,3.01811 1.314527,5.95958 9.266527,4.65095 13.646312,4.63916 9.83832,-2.28716 19.78864,1.53263 29.74485,-0.26527 5.824,-2.59958 11.73642,2.67032 17.43073,-0.27705 9.67916,-3.73137 7.88127,-23.23116 -3.65473,-22.98947 -4.17937,-0.65432 -8.848,0.40673 -11.26485,4.17937 -2.05136,-0.76632 -3.62526,-2.40506 -5.70021,-3.12422 -1.28505,-0.58357 -2.64084,-0.97852 -4.01431,-1.29094 -1.58569,-1.32042 -3.17137,-2.64674 -4.7099,-4.01432 -2.67031,-2.9061 -7.47452,-0.97852 -10.98779,-0.75452 -7.73389,-0.4539 -15.491365,-0.38316 -23.237049,-0.24758 z"
     id="path6"
     style="fill:#e9e9e8" />
  <path
     d="m 206.43368,65.23789 c 3.136,-3.59579 11.16464,-2.08673 13.41053,2.32253 2.39916,6.11874 -0.34189,13.15705 2.82358,19.00463 2.40505,4.21474 -1.38526,9.76168 -6.10105,9.54947 -4.49769,0.31832 -9.13095,0.71327 -13.60506,0.10021 -3.04168,-1.37936 -6.64336,-2.39326 -9.67915,-0.47747 -6.10106,3.50147 -12.35537,-2.54653 -18.57432,0.33011 -7.49221,2.29894 -14.96674,-2.09853 -22.25853,0.0884 -12.60884,0.50105 -25.27073,0.34189 -37.88547,0.0825 -5.21684,-1.61516 -6.53726,-7.03242 -7.94021,-11.56548 -3.05347,1.88632 -1.02568,7.45685 -4.45053,9.57895 -4.62147,3.23032 -11.24715,2.58779 -16.64084,1.49726 -3.39537,-0.71915 -6.90274,-6.14231 -3.76084,-8.80084 0.14737,1.29095 0.53642,2.54063 1.20253,3.65474 2.84126,6.03621 11.97221,4.40337 17.05936,2.72926 4.12043,-2.56421 1.53853,-8.94821 5.66485,-11.51831 1.61515,-0.74864 2.81768,0.78989 3.9141,1.71536 0.112,1.71537 0.18863,3.45432 0.55411,5.14021 0.0825,4.05558 4.60379,6.56674 8.29389,5.99495 12.58526,-0.53642 25.35326,1.14358 37.82063,-0.99621 7.09137,0.74863 14.37137,1.95116 21.40379,0.1179 3.28337,-1.07285 6.35453,0.86652 9.56127,1.16715 3.808,0.75453 7.19157,-2.1221 10.78736,-2.65852 6.29558,3.10652 14.15327,3.54863 20.80253,1.30273 4.0379,-2.0101 2.21642,-6.80252 0.84295,-9.94442 -1.69769,-5.376 2.43452,-15.75073 -5.06358,-17.98484 -2.65853,-0.71916 -5.46442,-0.43621 -8.1819,-0.43031 z"
     id="path8"
     style="fill:#eaeaea" />
  <path
     d="m 85.20842,65.38526 c 1.57979,-2.36968 5.04,-0.91958 7.33305,-1.39705 6.17769,0.79579 14.43621,-2.54653 18.71579,3.696 3.95537,4.35621 11.01727,1.47958 16.00421,2.32842 8.61221,1.91579 18.32674,-3.4779 26.00758,2.19874 1.28506,0.61894 2.68211,0.87242 4.19706,0.74863 -0.99622,1.01389 -1.98064,2.07495 -2.58779,3.38358 -1.86274,-1.27916 -3.65474,-2.6939 -5.72379,-3.62527 -2.352,-1.792 -5.55874,-2.18694 -8.2939,-1.03747 -3.62526,1.83326 -8.78316,-2.32253 -11.35916,1.70947 -0.67789,0.006 -1.34989,0 -2.016,-0.006 -1.344,-3.22442 -8.62989,-2.92379 -10.43368,0.1179 -0.17684,-0.21811 -0.53053,-0.65432 -0.70737,-0.86653 -1.04926,-1.83326 -3.71368,-0.62484 -5.45263,-1.07874 -1.31453,-1.42652 -2.50526,-2.96505 -3.89642,-4.32084 -0.66021,-0.84884 -1.456,-1.86863 -2.63495,-1.85094 -6.37221,0.38905 -12.79158,0.78989 -19.152,0 z"
     id="path10"
     style="fill:#e4e5e2" />
  <path
     d="m 166.15495,65.232 c 2.4581,-3.10063 8.85979,-1.26737 11.0821,1.8981 0.77221,2.06316 1.73895,4.73348 4.39748,4.7099 -1.3499,0.83116 -2.52295,1.904 -3.66653,3.00042 -1.64463,-2.64084 -1.81558,-6.20716 -4.45642,-8.13474 -1.81558,-2.28716 -4.91621,-0.60126 -7.35663,-1.47368 z"
     id="path12"
     style="fill:#e3e4e2" />
  <path
     d="m 29.82147,66.07495 c 3.51327,-0.224 8.31748,-2.15158 10.98779,0.75452 -1.43242,5.28758 0.17095,5.98905 4.7099,4.01432 1.37347,0.31242 2.72926,0.70737 4.01431,1.29094 0.57769,1.20253 1.15537,2.41095 1.78021,3.584 0.71327,3.54864 -2.16926,9.67916 2.94148,10.20379 1.86273,6.74948 -6.22484,4.368 -10.00337,4.53895 -2.99453,-1.80379 -6.40758,0.87832 -9.64968,0.28884 -3.03579,0.91369 -4.32674,-1.39705 -4.82779,-3.71958 0.92547,-1.17305 2.24,-1.80968 3.67242,-2.13978 0.13558,-1.86274 0.19452,-3.73137 0.17094,-5.6 0.006,-1.02569 0.0177,-3.07116 0.0177,-4.09095 1.52084,-3.68421 -1.14358,-4.34442 -3.61937,-5.14611 0.26526,2.128 0.44211,4.27958 0.12968,6.40758 -1.62694,1.11411 -3.63705,0.92548 -5.51747,1.06105 -1.83916,-1.88042 0.86653,-6.16589 -2.1221,-6.44294 -1.621057,4.06147 -0.41853,9.09558 -0.648426,13.49305 0.436206,0.0118 1.314526,0.0354 1.756636,0.0472 0.74863,0.006 1.50315,0 2.25768,-0.0118 0.69558,0.54231 1.37347,1.10821 2.03958,1.68589 -0.20042,1.25558 -0.41853,2.51116 -0.74274,3.74316 -4.95747,0.81348 -9.991577,0.31832 -14.984419,0.63663 -0.306526,0.006 -0.913684,0.0295 -1.22021,0.0413 -0.542316,-0.24168 -1.090527,-0.48926 -1.632843,-0.74273 -0.336,-0.97264 -0.489263,-1.99832 -0.636631,-3.01811 0.106105,-0.71326 0.400842,-1.3381 0.88421,-1.88042 0.748632,-0.15916 1.503158,-0.28884 2.263579,-0.39495 3.206737,0.76042 2.257685,-2.52884 2.304842,-4.69221 0,-0.97263 0,-1.94526 -0.01768,-2.91789 0.0059,-1.7979 0.09432,-3.59579 -0.02947,-5.38779 -2.982737,-0.92548 -1.444211,2.97684 -1.845053,4.78652 -0.984421,0.60127 -1.992421,1.16716 -3.000421,1.73306 C 8.288,77.82316 7.333053,77.42821 6.384,77.01558 5.664842,73.90316 5.936,70.63747 5.853474,67.45431 5.818104,66.78821 6.059789,66.24 6.584421,65.82737 14.330105,65.69179 22.08758,65.62105 29.82147,66.07495 z"
     id="path14"
     style="fill:#b7e269" />
  <path
     d="m 81.73642,68.66273 c -0.0766,-1.79789 1.74484,-3.40126 3.472,-3.27747 6.36042,0.7899 12.77979,0.38905 19.152,0 1.17895,-0.0177 1.97474,1.00211 2.63495,1.85095 -0.14148,1.82737 -0.30653,3.65474 -0.35369,5.488 1.29685,-0.76632 2.73516,-1.19074 4.25011,-1.16716 1.73895,0.4539 4.40337,-0.75453 5.45263,1.07874 0.27705,3.73726 -1.16126,8.0581 0.18863,11.58905 4.0379,4.15579 6.21306,-7.30947 2.04548,-7.42737 -1.70358,-0.14147 -1.22611,-2.11031 -1.52674,-3.29516 1.80379,-3.04168 9.08968,-3.34231 10.43368,-0.11789 -0.053,3.90821 -0.42442,7.84 -0.0707,11.74231 2.42863,0.61895 7.44505,0.82527 5.85347,-3.44842 2.88842,-5.57052 -5.16968,-3.50736 -3.76674,-8.288 2.576,-4.032 7.7339,0.12379 11.35916,-1.70947 2.73516,-1.14947 5.9419,-0.75453 8.2939,1.03747 0.56589,1.20253 1.14947,2.40506 1.82736,3.55453 0.059,2.89432 -0.35368,5.81811 0.0531,8.69474 3.14779,-0.30653 4.08505,3.77263 2.03368,5.45852 -6.17768,0.98442 -11.9781,-1.456 -18.07326,0.0766 -4.65684,-0.90189 -9.59074,1.05516 -14.04716,-0.76631 -1.99832,0.79579 -4.032,1.50316 -6.20126,1.6741 -0.896,-0.32421 -1.7979,-0.63073 -2.688,-0.94905 -0.62484,-0.60716 -1.25558,-1.20253 -1.89221,-1.792 -0.36548,-1.68589 -0.44211,-3.42484 -0.55411,-5.14021 0.006,-1.01979 0.0413,-2.03958 0.0472,-3.05937 0.0177,-0.7781 0.006,-1.55621 -0.0354,-2.33431 -0.39495,-1.86864 -3.44842,-2.96506 -4.43874,-0.7899 -6.29557,2.77053 -3.0181,-6.11874 -6.57263,-6.39579 1.27327,3.46021 1.11411,7.25642 1.78021,10.85811 -0.54821,0.87242 -1.16715,1.69768 -1.80379,2.51115 -2.39326,-0.12378 -3.60758,-1.92168 -4.23831,-4.00842 -1.50316,4.13221 0.73684,4.82779 3.99073,4.368 1.47958,1.68 1.75664,4.20885 -0.0531,5.77685 -4.52716,0.16505 -9.05431,0.0295 -13.58147,0.17684 -0.43621,-0.006 -1.30274,-0.0177 -1.73305,-0.0295 -0.66611,-1.11411 -1.05516,-2.36379 -1.20253,-3.65474 0.0884,-0.94316 0.79579,-1.59747 1.41474,-2.24 0.95494,-0.0413 1.91579,-0.0472 2.87663,-0.12379 -0.2299,-2.38737 3.93768,-14.06484 -2.53474,-12.79158 -0.91368,-0.84294 -1.66821,-1.85094 -1.792,-3.1301 z"
     id="path16"
     style="fill:#b7e367" />
  <path
     d="m 163.22526,71.01473 c -2.26947,-2.31073 -0.31242,-6.36042 2.92969,-5.78273 2.44042,0.87242 5.54105,-0.81348 7.35663,1.47368 -0.0472,0.80758 -0.0766,1.62105 -0.0884,2.42863 -0.13558,5.28169 -0.28295,10.56927 -0.0118,15.84506 3.11242,-0.23579 4.51537,3.59579 2.10442,5.49979 -2.77642,0.0648 -5.68842,0.53642 -8.2939,-0.66611 -1.95115,0.57179 -3.83747,1.48547 -5.91242,1.63874 -1.13179,-0.47748 -2.22821,-1.0139 -3.31873,-1.568 -2.78232,-2.68211 -4.12632,-6.47242 -4.12042,-10.29811 0.37136,-1.06695 0.68968,-2.15747 1.008,-3.2421 0.60715,-1.30863 1.59157,-2.36969 2.58779,-3.38358 1.34989,-1.75663 3.81389,-1.60337 5.75915,-1.94527 z"
     id="path18"
     style="fill:#b7e26b" />
  <path
     d="m 206.43368,65.23789 c 2.71748,-0.006 5.52337,-0.28884 8.1819,0.43032 0.224,0.56589 0.448,1.13768 0.6661,1.70947 -0.0118,0.76632 -0.0236,1.53853 -0.0177,2.30484 -0.14147,5.12843 -0.21811,10.26274 -0.0413,15.39116 0.71915,0.0943 1.44421,0.17095 2.16926,0.2299 1.904,1.3381 1.33221,3.63705 0.13558,5.2581 -5.31705,-0.30652 -9.87369,-1.10231 -14.94316,0.84295 -1.6741,-0.86653 -3.26568,-1.904 -4.64505,-3.19495 -2.03369,-3.81389 -2.576,-8.27031 -1.13769,-12.39663 0.7899,-0.96674 1.61516,-1.91579 2.39916,-2.90021 1.36758,-1.73895 3.97305,-1.46779 5.87705,-1.89811 -1.65642,-1.95705 -1.13768,-4.83368 1.35579,-5.77684 z"
     id="path20"
     style="fill:#b8e26b" />
  <path
     d="m 214.61558,65.66821 c 7.4981,2.2341 3.36589,12.60884 5.06358,17.98484 1.37347,3.1419 3.19495,7.93432 -0.84295,9.94442 -6.64926,2.2459 -14.50695,1.80379 -20.80253,-1.30274 -3.59579,0.53643 -6.97936,3.41306 -10.78736,2.65853 -3.20674,-0.30063 -6.2779,-2.24 -9.56127,-1.16716 -7.03242,1.83327 -14.31242,0.63074 -21.40379,-0.11789 -12.46737,2.13979 -25.23537,0.45979 -37.82063,0.99621 -3.6901,0.57179 -8.21137,-1.93937 -8.29389,-5.99495 0.63663,0.58948 1.26737,1.18484 1.89221,1.792 0.88421,0.73684 2.65852,2.21642 3.54863,2.95326 12.5381,-0.17094 25.17053,0.73685 37.65558,-0.54231 5.74737,-1.62695 11.27073,1.70947 17.10652,0.61895 4.40337,0.27115 8.71832,-2.9179 13.02737,-0.70737 5.0459,2.94147 9.97979,-0.53053 14.60716,-2.18105 5.88295,3.6901 13.31032,3.73726 19.88884,2.05726 3.00042,-1.41474 2.03958,-5.1579 1.03158,-7.65137 -2.21642,-5.58821 1.39705,-13.19832 -3.64295,-17.63116 -0.2181,-0.57179 -0.4421,-1.14358 -0.6661,-1.70947 z"
     id="path22"
     style="fill:#d4d4d4" />
  <path
     d="m 7.315368,69.68252 c -2.293052,-4.53305 2.788211,-2.48168 4.910316,-2.58189 3.813895,0.40084 7.751579,0.90189 11.541896,0.0825 1.80379,0.38316 7.32716,-2.10442 5.1461,2.71747 0.92548,2.48169 0.0295,8.88927 -3.42484,5.72379 1.39116,-2.77052 -1.65052,-8.0581 -4.444629,-4.72758 -0.825264,4.33264 -0.389053,9.16632 -0.377264,13.69937 0.394948,3.37769 7.710313,-1.47958 5.210943,4.01432 -4.509469,1.60926 -10.716627,0.71326 -15.46189,0.336 -1.998316,-3.32463 2.381474,-3.37769 4.792421,-3.24211 1.385263,-3.07705 0.418526,-6.67284 0.742737,-9.92673 0.990316,-2.56421 -1.538526,-7.72211 -4.609684,-5.14611 C 10.976,72.55913 12.066526,78.22987 7.798737,76.31408 6.501895,74.30397 7.663158,71.86355 7.315368,69.6825 z"
     id="path24"
     style="fill:#fdfefb" />
  <path
     d="m 12.225684,67.10063 c 3.837474,-0.0707 7.728,-0.48926 11.541896,0.0825 -3.790317,0.81937 -7.728001,0.31832 -11.541896,-0.0825 z"
     id="path26"
     style="fill:#e3f5c1" />
  <path
     d="m 31.84337,68.69221 c -0.87832,-3.696 4.928,-1.09053 7.02063,-1.71537 0.57179,2.41684 -0.93726,5.51158 0.69558,7.62189 2.65853,-2.00421 6.29558,-3.40126 9.16042,-0.96084 2.19874,3.77853 -0.63074,8.76548 1.53853,12.59706 4.77473,-2.26948 2.95326,5.90652 -0.73685,3.136 -1.55621,0.63663 -8.19957,0.18863 -5.09894,-2.74106 2.94737,-2.43452 2.464,-8.23494 -0.35958,-10.76968 -5.67663,-1.43242 -6.1659,6.91452 -4.69811,10.06821 2.99453,0.62484 2.1339,5.30526 -1.63284,3.43663 -1.39116,-0.62484 -6.17179,1.33221 -5.91242,-1.77432 -0.7899,-2.44631 3.30105,0.0354 3.14189,-2.21642 0.33011,-4.76294 1.13179,-9.78526 0.0177,-14.48926 -0.112,-1.75663 -3.11242,-0.336 -3.136,-2.19284 z"
     id="path28"
     style="fill:#fefffc" />
  <path
     d="m 40.80926,66.82947 c 1.53853,1.36758 3.12421,2.6939 4.7099,4.01432 -4.53895,1.97473 -6.14232,1.27326 -4.7099,-4.01432 z"
     id="path30"
     style="fill:#b8b9b7" />
  <path
     d="m 83.83495,70.34863 c -2.28127,-3.52505 2.38737,-3.93179 5.02231,-3.248 3.41895,0.47747 6.93811,0.71916 10.36295,0.0884 1.568,-0.0589 4.71579,-0.18274 6.28968,-0.24168 -0.98442,2.97684 1.87453,9.61431 -2.78821,9.33136 -2.87663,-1.36168 0.90779,-4.93389 -2.08673,-6.28379 -2.56421,0.31832 -6.2779,-1.42063 -7.99916,1.24969 -0.90779,1.94526 0.0236,5.74737 2.74695,5.09895 1.3381,-1.10821 0.66021,-4.12043 3.02989,-3.52506 0.10611,3.11832 0.0943,6.23663 -0.0354,9.35495 -2.61137,2.49937 -1.02568,-5.91832 -5.09305,-2.7941 -1.42653,1.85094 -1.75074,8.288 2.81179,6.44294 3.34232,-0.35958 1.63874,6.09516 -1.77432,3.53095 -3.21263,-1.19074 -9.90315,2.46989 -11.17052,-1.78021 0.22989,-3.61937 7.00884,0.22989 4.68631,-5.29347 -1.24968,-3.73137 3.30695,-13.16295 -4.00252,-11.93095 z"
     id="path32"
     style="fill:#fdfefb" />
  <path
     d="m 88.85726,67.10063 c 3.44842,-0.18863 6.91453,-0.25937 10.36295,0.0884 -3.42484,0.63074 -6.944,0.38905 -10.36295,-0.0884 z"
     id="path34"
     style="fill:#e2f5c1" />
  <path
     d="m 163.88547,66.97095 c 2.54064,0.51873 6.07158,-1.16716 8.17011,0.71326 0.24758,6.20716 -0.0943,12.42021 0.11789,18.62147 4.88085,-2.576 3.13011,5.89474 -0.62484,3.05937 -4.99874,3.27747 -1.34989,-3.19495 -4.04968,-2.32842 -1.73306,1.52674 -3.86695,3.64295 -6.39579,2.72337 -8.03453,-1.98063 -7.55116,-17.8139 1.60926,-16.94148 2.016,-0.75452 3.66063,3.03579 5.22863,1.06106 2.94148,-5.73558 -5.46442,-2.72337 -4.05558,-6.90863 z"
     id="path36"
     style="fill:#fdfefa" />
  <path
     d="m 173.51158,66.70568 c 2.64084,1.92758 2.81179,5.4939 4.45642,8.13474 -0.45979,1.344 -0.97853,2.67031 -1.38526,4.03789 -2.36379,-2.82358 -0.28885,-7.19158 -3.15958,-9.744 0.0118,-0.80758 0.0413,-1.62105 0.0884,-2.42863 z"
     id="path38"
     style="fill:#c0c0c0" />
  <path
     d="m 205.73811,66.97095 c 2.53473,0.51873 6.07157,-1.16716 8.1701,0.71326 0.24758,6.20716 -0.0943,12.42021 0.1179,18.62147 4.88084,-2.576 3.1301,5.89474 -0.62485,3.05937 -4.99873,3.27747 -1.34989,-3.19495 -4.04968,-2.32842 -1.73305,1.52674 -3.86695,3.64295 -6.39579,2.72337 -8.03453,-1.98063 -7.55116,-17.8139 1.60926,-16.94148 2.01011,-0.75452 3.66063,3.03579 5.22863,1.06106 2.94148,-5.73558 -5.46442,-2.72337 -4.05557,-6.90863 z"
     id="path40"
     style="fill:#fdfefa" />
  <path
     d="M 9.578947,85.07368 C 5.841684,80.55831 0.725053,72.72421 5.853474,67.45431 c 0.08253,3.18316 -0.188632,6.44885 0.530526,9.56127 0.112,3.79621 7.350737,3.40126 5.458526,7.66315 -0.760421,0.10611 -1.514947,0.23579 -2.263579,0.39495 z"
     id="path42"
     style="fill:#e9e9e8" />
  <path
     d="m 106.99537,67.23621 c 1.39116,1.35579 2.58189,2.89431 3.89642,4.32084 -1.51495,-0.0236 -2.95326,0.40084 -4.25011,1.16716 0.0472,-1.83326 0.21221,-3.66063 0.35369,-5.488 z"
     id="path44"
     style="fill:#b0b2ad" />
  <path
     d="m 215.28168,67.37768 c 5.04,4.43284 1.42653,12.04295 3.64295,17.63116 1.008,2.49347 1.96884,6.23663 -1.03158,7.65137 -6.57852,1.68 -14.00589,1.63284 -19.88884,-2.05726 -4.62737,1.65052 -9.56126,5.12252 -14.60716,2.18105 -4.30905,-2.21053 -8.624,0.97852 -13.02737,0.70737 -5.83579,1.09052 -11.35915,-2.2459 -17.10652,-0.61895 -12.48505,1.27916 -25.11748,0.37137 -37.65558,0.54231 -0.89011,-0.73684 -2.66442,-2.21642 -3.54863,-2.95326 0.8901,0.31832 1.792,0.62484 2.688,0.94905 11.74231,2.27537 24.08,0.0825 36.0581,0.77221 2.42274,-0.672 4.7099,-1.792 7.18569,-2.29894 1.09052,0.5541 2.18694,1.09052 3.31873,1.568 6.43116,2.688 12.91537,-0.0236 19.12842,-1.68 1.30864,0.49516 2.61727,0.99621 3.91411,1.53852 5.03411,3.18316 9.33137,-0.93726 13.58737,-3.10063 1.37937,1.29095 2.97095,2.32842 4.64505,3.19495 4.34442,0.78989 11.45937,2.97684 14.94316,-0.84295 1.19663,-1.62105 1.76842,-3.92 -0.13558,-5.2581 -1.80379,-4.85137 1.84505,-11.73642 -2.128,-15.62106 -0.006,-0.76631 0.006,-1.53852 0.0177,-2.30484 z"
     id="path46"
     style="fill:#babbba" />
  <path
     d="m 83.68168,76.96842 c -1.1141,-2.51116 -4.50947,-5.56463 -1.94526,-8.30569 0.12379,1.27916 0.87832,2.28716 1.792,3.13011 2.8,3.76084 2.68211,8.32926 2.53474,12.79158 -0.96084,0.0766 -1.92169,0.0825 -2.87663,0.12379 0.56,-2.49348 2.03958,-5.32884 0.49515,-7.73979 z"
     id="path48"
     style="fill:#e6e6e6" />
  <path
     d="m 173.42316,69.13431 c 2.87073,2.55242 0.79579,6.92042 3.15958,9.744 -0.784,3.99074 0.71326,8.2939 3.85515,10.89348 -6.21305,1.65642 -12.69726,4.368 -19.12842,1.68 2.07495,-0.15327 3.96127,-1.06695 5.91242,-1.63874 2.60548,1.20253 5.51748,0.73095 8.2939,0.66611 2.41095,-1.904 1.008,-5.73558 -2.10442,-5.49979 -0.27116,-5.27579 -0.12379,-10.56337 0.0118,-15.84506 z"
     id="path50"
     style="fill:#9d9e9c" />
  <path
     d="m 30.016,70.05389 c 2.47579,0.80169 5.14021,1.4619 3.61937,5.14611 -1.15537,0.4421 -2.32842,0.83705 -3.48969,1.26147 0.31243,-2.128 0.13558,-4.27958 -0.12968,-6.40758 z"
     id="path52"
     style="fill:#8b8e86" />
  <path
     d="m 184.43453,71.01473 c 4.45642,-3.68421 9.86779,1.40885 14.76631,1.89811 -0.784,0.98442 -1.60926,1.93347 -2.39916,2.90021 -0.76042,-0.18863 -1.52084,-0.38316 -2.27536,-0.58358 -2.08674,-3.48379 -6.19537,-4.68631 -10.09179,-4.21474 z"
     id="path54"
     style="fill:#dddedb" />
  <path
     d="m 215.264,69.68252 c 3.97305,3.88464 0.32421,10.76969 2.128,15.62106 -0.72505,-0.0589 -1.45011,-0.13558 -2.16926,-0.2299 -0.17685,-5.12842 -0.10021,-10.26273 0.0413,-15.39116 z"
     id="path56"
     style="fill:#9c9c9c" />
  <path
     d="m 22.50611,71.07958 c 2.98863,0.27705 0.28294,4.56252 2.1221,6.44294 -1.53263,2.08085 -1.91579,4.66864 -1.01389,7.09727 -0.44211,-0.0118 -1.32043,-0.0354 -1.756636,-0.0472 0.229896,-4.39748 -0.972631,-9.43158 0.648426,-13.49306 z"
     id="path58"
     style="fill:#878a82" />
  <path
     d="m 34.97937,70.88505 c 1.1141,4.704 0.31242,9.72632 -0.0177,14.48926 -0.15326,-4.82189 -0.47747,-9.67915 0.0177,-14.48926 z"
     id="path60"
     style="fill:#daf2af" />
  <path
     d="m 55.23368,75.25895 c 2.41685,-3.77264 7.08548,-4.83369 11.26485,-4.17937 1.72126,0.74273 3.34231,1.69179 4.76884,2.912 0.43031,1.15537 0.91368,2.28715 1.46779,3.38358 0.784,3.66652 -3.19495,5.936 -0.85474,9.57305 -1.568,4.07326 -6.90863,4.33852 -10.69895,4.27368 -0.68968,-0.32421 -1.39705,-0.61894 -2.10442,-0.90189 -4.33263,-2.39916 -5.80631,-7.48632 -4.91621,-12.096 0.32421,-0.99621 0.69558,-1.98063 1.07284,-2.96505 z"
     id="path62"
     style="fill:#b8e26c" />
  <path
     d="m 66.49853,71.07958 c 11.536,-0.24169 13.33389,19.2581 3.65473,22.98947 -5.69431,2.94737 -11.60673,-2.32253 -17.43073,0.27705 -9.95621,1.7979 -19.90653,-2.02189 -29.74485,0.26527 -4.379785,0.0118 -12.331785,1.32042 -13.646312,-4.63916 0.542316,0.25347 1.090527,0.50105 1.632843,0.74274 4.91621,5.22863 13.770109,3.14778 19.688419,0.41852 9.09558,4.62737 19.66484,1.52674 29.26148,1.40884 4.29136,1.92169 10.10947,2.04548 13.18652,-2.03368 2.42863,-5.09895 3.53095,-12.93895 -1.83326,-16.51705 -1.42653,-1.22021 -3.04758,-2.16927 -4.76884,-2.912 z"
     id="path64"
     style="fill:#d4d4d4" />
  <path
     d="m 94.49263,71.1621 c 6.28379,-1.13179 0.19453,0.57179 0.87832,2.8 -0.73684,3.29516 -3.36,-1.93347 -0.87832,-2.8 z"
     id="path66"
     style="fill:#8ca362" />
  <path
     d="m 98.61305,70.94989 c 3.55453,0.27706 0.27706,9.16632 6.57263,6.39579 0.99032,-2.17516 4.04379,-1.07873 4.43874,0.7899 -3.77263,-1.04337 -7.02063,0.7781 -9.23116,3.67242 -0.6661,-3.60169 -0.50694,-7.3979 -1.78021,-10.85811 z"
     id="path68"
     style="fill:#909881" />
  <path
     d="m 181.63453,71.84 c 0.86652,-0.46569 1.79789,-0.86653 2.8,-0.82527 3.89642,-0.47157 8.00505,0.73095 10.09179,4.21474 0.27705,2.64084 1.65052,5.83579 -0.97853,7.62779 3.90232,6.13642 -4.44463,9.11916 -9.19579,8.45305 -1.29684,-0.54231 -2.60547,-1.04336 -3.91411,-1.53852 -3.14189,-2.59958 -4.63915,-6.90274 -3.85515,-10.89348 0.40673,-1.36758 0.92547,-2.69389 1.38526,-4.03789 1.14358,-1.09642 2.31663,-2.16926 3.66653,-3.00042 z"
     id="path70"
     style="fill:#b8e16d" />
  <path
     d="m 12.255158,76.46737 c 0.400842,-1.80969 -1.137684,-5.712 1.845053,-4.78653 0.123789,1.792 0.03537,3.58989 0.02947,5.38779 C 13.504842,76.8741 12.88,76.67368 12.255158,76.46737 z"
     id="path72"
     style="fill:#7d7d7c" />
  <path
     d="m 83.52842,71.79284 c 6.47242,-1.27326 2.30484,10.40421 2.53474,12.79158 0.14737,-4.46232 0.26526,-9.03074 -2.53474,-12.79158 z"
     id="path74"
     style="fill:#c4caba" />
  <path
     d="m 49.53347,72.13473 c 2.07495,0.71916 3.64885,2.3579 5.70021,3.12422 -0.37726,0.98442 -0.74863,1.96884 -1.07284,2.96505 -0.94316,-0.84295 -1.89221,-1.67411 -2.84716,-2.50527 -0.62484,-1.17305 -1.20252,-2.38147 -1.78021,-3.584 z"
     id="path76"
     style="fill:#c6c7c4" />
  <path
     d="m 62.13642,72.52379 c 4.80421,-1.64463 9.64379,3.12421 9.12505,7.84 -2.83536,1.91579 -7.10315,-0.0413 -10.39831,0.84884 -3.63116,2.25768 1.68589,7.56295 4.592,5.22863 1.75663,-0.46568 3.48379,-3.79031 5.19916,-1.6741 0.80757,2.42273 -1.98064,4.32084 -4.0379,4.5861 -5.2581,2.20463 -12.11368,-2.29895 -11.21179,-8.25853 -0.4421,-3.97894 2.61137,-8.32926 6.73179,-8.57094 z"
     id="path78"
     style="fill:#fcfef9" />
  <path
     d="m 139.85853,74.17431 c 2.59958,-3.31284 9.68505,-2.03368 9.28421,2.77642 0.20631,2.79411 -0.54232,5.74737 0.37726,8.45306 0.70737,1.75073 4.82189,0.57768 2.75874,3.54273 -2.1339,-0.28884 -10.34527,2.82358 -8.94232,-1.80968 4.01432,-1.82147 3.23621,-8.51789 0.34779,-11.27663 -5.89474,-1.55621 -6.72589,7.22105 -4.35032,10.2981 5.93011,4.65095 -11.99578,5.14611 -7.70442,0.45979 5.25221,0.0943 1.89221,-7.0501 2.72337,-10.14484 -1.232,-1.01979 -4.30905,-0.41853 -3.43073,-2.9061 1.42063,-1.01979 7.18568,-2.24 6.47831,1.06105 0.0177,1.32042 2.03369,0.27705 2.45811,-0.4539 z"
     id="path80"
     style="fill:#fdfffc" />
  <path
     d="m 184.74695,72.52379 c 4.79831,-1.64463 9.64379,3.12421 9.12505,7.84 -2.84126,1.91579 -7.10316,-0.0413 -10.39832,0.84884 -3.63115,2.25768 1.6859,7.56295 4.592,5.22863 1.75664,-0.46568 3.4779,-3.79031 5.19916,-1.6741 0.80758,2.42273 -1.98652,4.32084 -4.03789,4.5861 -5.25811,2.20463 -12.11369,-2.29895 -11.21179,-8.25853 -0.44211,-3.97894 2.61137,-8.32926 6.73179,-8.57094 z"
     id="path82"
     style="fill:#fcfef9" />
  <path
     d="m 107.93853,73.56716 c 1.62105,-1.91579 4.88084,-0.0766 6.97936,-0.71327 0.57179,4.16758 -0.98442,8.87158 0.79579,12.77979 5.55285,3.48379 7.65137,-5.22863 5.95958,-8.87158 -0.24168,-1.68589 -3.15958,-0.37137 -3.18905,-2.17515 -0.17684,-3.46022 5.19916,-1.03158 7.056,-1.73306 0.0472,4.17348 -0.224,8.37642 0.42442,12.52042 -0.16505,2.25179 3.9259,-0.22989 3.1419,2.21642 0.112,3.21264 -7.89306,3.136 -6.6139,-0.65431 -2.94147,2.18105 -7.99916,4.66863 -10.90526,1.06105 -1.3499,-3.67242 -0.448,-7.71031 -0.82526,-11.52421 -1.19664,-0.81937 -3.62527,-0.88421 -2.82358,-2.9061 z"
     id="path84"
     style="fill:#fdfffc" />
  <path
     d="m 116.34442,72.63579 c 0.17684,0.21221 0.53053,0.64842 0.70737,0.86652 0.30063,1.18485 -0.17684,3.15369 1.52674,3.29516 4.16758,0.1179 1.99242,11.58316 -2.04548,7.42737 -1.34989,-3.53095 0.0884,-7.85179 -0.18863,-11.58905 z"
     id="path86"
     style="fill:#979b91" />
  <path
     d="m 125.54021,72.85389 c 1.54442,2.87074 0.19453,8.64758 0.42442,12.52042 -0.64842,-4.144 -0.37726,-8.34694 -0.42442,-12.52042 z"
     id="path88"
     style="fill:#daf2ae" />
  <path
     d="m 149.15453,72.71831 c 2.06905,0.93137 3.86105,2.34611 5.72379,3.62527 -0.31832,1.08463 -0.63664,2.17515 -1.008,3.2421 -0.92548,-1.13768 -1.86274,-2.26947 -2.88843,-3.31284 -0.67789,-1.14947 -1.26147,-2.352 -1.82736,-3.55453 z"
     id="path90"
     style="fill:#c1c3be" />
  <path
     d="m 127.48547,73.38442 c 0.66611,0.006 1.33811,0.0118 2.016,0.006 -1.40294,4.78063 6.65516,2.71747 3.76674,8.288 1.59158,4.27368 -3.42484,4.06737 -5.85347,3.44842 -0.35369,-3.90231 0.0177,-7.8341 0.0707,-11.74231 z"
     id="path92"
     style="fill:#abada8" />
  <path
     d="m 71.26737,73.99158 c 5.36421,3.5781 4.26189,11.4181 1.83326,16.51705 -3.07705,4.07916 -8.89516,3.95537 -13.18652,2.03368 -9.59664,0.1179 -20.1659,3.21853 -29.26148,-1.40884 -5.91831,2.72926 -14.772209,4.81011 -19.688419,-0.41852 0.306526,-0.0118 0.913684,-0.0354 1.22021,-0.0413 4.191158,2.14568 12.308209,3.94357 14.984419,-0.63664 0.32421,-1.232 0.54232,-2.48758 0.74274,-3.74315 0.61895,0.24757 1.23789,0.49515 1.86274,0.73684 0.50105,2.32252 1.792,4.63326 4.82779,3.71958 3.63115,3.18905 8.85978,0.1061 13.16884,1.41473 4.032,1.18485 7.36252,-1.93347 11.3061,-1.84505 0.70737,0.28295 1.41474,0.57769 2.10442,0.9019 3.85516,3.12421 11.36506,1.344 12.14906,-4.02021 0.24168,-3.15369 1.19073,-6.96169 -0.59537,-9.82653 -0.55411,-1.09642 -1.03748,-2.22821 -1.46779,-3.38358 z"
     id="path94"
     style="fill:#bcbcbb" />
  <path
     d="m 62.65516,74.76379 c 2.128,-0.50106 4.67452,1.66821 3.96716,3.95537 -1.62695,0 -4.87495,0 -6.5019,0 -0.53053,-1.92758 0.84295,-3.33643 2.53474,-3.95537 z"
     id="path96"
     style="fill:#b4e163" />
  <path
     d="m 185.26568,74.76379 c 2.128,-0.50106 4.67453,1.66821 3.96716,3.95537 -1.62695,0 -4.87495,0 -6.50189,0 -0.53053,-1.92758 0.84294,-3.33643 2.53473,-3.95537 z"
     id="path98"
     style="fill:#b4e163" />
  <path
     d="M 30.14568,76.46147 C 31.30695,76.03705 32.48,75.6421 33.63537,75.2 c 0,1.01979 -0.0118,3.06526 -0.0177,4.09095 -3.15957,-0.41264 -10.46905,0.0177 -7.74568,5.31705 -0.75453,0.0118 -1.50905,0.0177 -2.25768,0.0118 -0.9019,-2.42863 -0.51874,-5.01642 1.01389,-7.09726 1.88042,-0.13558 3.89053,0.0531 5.51747,-1.06106 z"
     id="path100"
     style="fill:#b0b1ae" />
  <path
     d="m 194.52632,75.22947 c 0.75452,0.20042 1.51494,0.39495 2.27536,0.58358 -1.43831,4.12632 -0.896,8.58274 1.13769,12.39663 -4.256,2.16337 -8.55326,6.28379 -13.58737,3.10063 4.75116,0.66611 13.09811,-2.31663 9.19579,-8.45305 2.62905,-1.792 1.25558,-4.98695 0.97853,-7.62779 z"
     id="path102"
     style="fill:#999c92" />
  <path
     d="m 51.31368,75.71873 c 0.95495,0.83116 1.904,1.66232 2.84716,2.50527 -0.8901,4.60968 0.58358,9.69684 4.91621,12.096 -3.94358,-0.0884 -7.2741,3.02989 -11.3061,1.84505 -4.30906,-1.30863 -9.53769,1.77432 -13.16884,-1.41474 3.2421,0.58948 6.65515,-2.09263 9.64968,-0.28884 3.77853,-0.17095 11.8661,2.21053 10.00337,-4.53895 -5.11074,-0.52463 -2.22821,-6.65515 -2.94148,-10.20379 z"
     id="path104"
     style="fill:#9ea09a" />
  <path
     d="m 162.27621,75.88968 c 6.08926,-1.48547 7.09137,7.47453 3.21263,10.43958 -6.43116,2.38147 -7.71031,-7.81053 -3.21263,-10.43958 z"
     id="path106"
     style="fill:#b8e369" />
  <path
     d="m 204.12884,75.88968 c 6.08927,-1.48547 7.09137,7.47453 3.21263,10.43958 -6.43115,2.38147 -7.71031,-7.81053 -3.21263,-10.43958 z"
     id="path108"
     style="fill:#b8e369" />
  <path
     d="m 9.254737,78.20042 c 1.008,-0.5659 2.016,-1.13179 3.000421,-1.73305 0.624842,0.20631 1.249684,0.40673 1.874526,0.60126 0.01768,0.97263 0.01768,1.94526 0.01768,2.91789 -1.68,-0.4421 -3.354105,-0.96084 -4.892631,-1.7861 z"
     id="path110"
     style="fill:#abada9" />
  <path
     d="M 62.02442,76.44968 C 63.29768,76.29642 64.97179,76.01347 65.52,77.51073 64.34695,77.328 59.94358,78.37726 62.02442,76.44968 z"
     id="path112"
     style="fill:#797d74" />
  <path
     d="m 150.98189,76.27284 c 1.02569,1.04337 1.96295,2.17516 2.88843,3.31284 -0.006,3.82569 1.3381,7.616 4.12042,10.29811 -2.47579,0.50694 -4.76295,1.62694 -7.18569,2.29894 -11.9781,-0.68968 -24.31579,1.50316 -36.0581,-0.77221 2.16926,-0.17094 4.20294,-0.87831 6.20126,-1.6741 4.45642,1.82147 9.39032,-0.13558 14.04716,0.76631 6.09516,-1.53263 11.89558,0.90779 18.07326,-0.0766 2.05137,-1.68589 1.11411,-5.76505 -2.03368,-5.45852 -0.40674,-2.87663 0.006,-5.80042 -0.0531,-8.69474 z"
     id="path114"
     style="fill:#9fa19c" />
  <path
     d="m 184.63495,76.44968 c 1.27326,-0.15326 2.94737,-0.43621 3.49558,1.06105 -1.17306,-0.18273 -5.57642,0.86653 -3.49558,-1.06105 z"
     id="path116"
     style="fill:#797d74" />
  <path
     d="m 6.384,77.01558 c 0.949053,0.41263 1.904,0.80758 2.870737,1.18484 1.538526,0.82526 3.212631,1.344 4.892631,1.7861 -0.04716,2.16337 0.901895,5.45264 -2.304842,4.69221 C 13.734737,80.41684 6.496,80.81179 6.384,77.01558 z"
     id="path118"
     style="fill:#d0d0d0" />
  <path
     d="m 42.00589,77.06863 c 4.0379,-0.70147 1.86274,5.55874 2.11622,8.02863 -4.69222,3.19495 -4.99874,-6.0421 -2.11622,-8.02863 z"
     id="path120"
     style="fill:#8a8b89" />
  <path
     d="m 141.65053,77.12758 c 3.86694,-0.83116 3.584,8.01684 0.27705,9.01894 -3.62526,-0.70147 -3.50737,-7.67494 -0.27705,-9.01894 z"
     id="path122"
     style="fill:#8f918d" />
  <path
     d="m 149.14274,76.95073 c 1.38526,1.64464 0.51873,5.75916 0.37726,8.45306 -0.91958,-2.70569 -0.17095,-5.65895 -0.37726,-8.45306 z"
     id="path124"
     style="fill:#d9f2ac" />
  <path
     d="m 162.83621,77.04505 c 5.1579,-0.99032 4.67453,10.09768 -0.53642,8.08168 -1.66232,-2.39915 -1.7979,-6.10105 0.53642,-8.08168 z"
     id="path126"
     style="fill:#94968f" />
  <path
     d="m 204.68884,77.04505 c 5.1579,-0.99032 4.67453,10.09768 -0.53642,8.08168 -1.66231,-2.39915 -1.80379,-6.10105 0.53642,-8.08168 z"
     id="path128"
     style="fill:#94968f" />
  <path
     d="m 72.73516,77.37516 c 1.7861,2.86484 0.83705,6.67284 0.59537,9.82652 -0.784,5.36421 -8.2939,7.14442 -12.14906,4.02021 3.79032,0.0648 9.13095,-0.20042 10.69895,-4.27368 -2.34021,-3.63705 1.63874,-5.90653 0.85474,-9.57305 z"
     id="path130"
     style="fill:#a3a5a0" />
  <path
     d="m 100.39326,81.808 c 2.21053,-2.89432 5.45853,-4.71579 9.23116,-3.67242 0.0413,0.7781 0.0531,1.55621 0.0354,2.33431 -1.91579,-0.19452 -4.06147,-1.13179 -5.72968,0.20632 -4.16169,3.17726 -0.90779,11.16463 -7.33306,12.16674 -4.00252,0.0118 -8.78905,0.97263 -11.88968,-2.21053 4.52716,-0.14737 9.05431,-0.0118 13.58147,-0.17684 1.80969,-1.568 1.53263,-4.09685 0.0531,-5.77685 l 0.24758,-0.35957 c 0.63664,-0.81348 1.25558,-1.63874 1.80379,-2.51116 z"
     id="path132"
     style="fill:#a9a9a7" />
  <path
     d="m 25.872,84.608 c -2.72337,-5.29937 4.58611,-5.72969 7.74568,-5.31705 0.0236,1.86863 -0.0354,3.73726 -0.17094,5.6 -1.43242,0.3301 -2.74695,0.96673 -3.67242,2.13978 -0.62485,-0.24168 -1.24379,-0.48926 -1.86274,-0.73684 -0.66611,-0.57768 -1.344,-1.14358 -2.03958,-1.68589 z"
     id="path134"
     style="fill:#d7d8d7" />
  <path
     d="m 103.93011,80.67621 c 1.66821,-1.33811 3.81389,-0.40084 5.72968,-0.20632 -0.006,1.01979 -0.0413,2.03958 -0.0472,3.05937 -1.09642,-0.92547 -2.29895,-2.464 -3.9141,-1.71537 -4.12632,2.57011 -1.54442,8.95411 -5.66485,11.51832 -5.08715,1.6741 -14.2181,3.30695 -17.05936,-2.72926 0.43031,0.0118 1.29684,0.0236 1.73305,0.0295 3.10063,3.18315 7.88716,2.22231 11.88968,2.21052 6.42527,-1.0021 3.17137,-8.98947 7.33306,-12.16674 z"
     id="path136"
     style="fill:#cdcdcc" />
  <path
     d="m 94.35116,80.31073 c 0.63073,2.08674 1.84505,3.88464 4.23831,4.00843 l -0.24758,0.35957 C 95.088,85.13852 92.848,84.44295 94.35116,80.31073 z"
     id="path138"
     style="fill:#72756d" />
  <path
     d="m 61.26989,82.88673 c 1.65053,0 4.93979,-0.006 6.59032,-0.006 -1.52084,2.16337 -7.04421,4.15579 -6.59032,0.006 z"
     id="path140"
     style="fill:#787a75" />
  <path
     d="m 183.88042,82.88673 c 1.65053,0 4.93979,-0.006 6.59032,-0.006 -1.52085,2.16337 -7.04421,4.15579 -6.59032,0.006 z"
     id="path142"
     style="fill:#787a75" />
  <path
     d="m 202.58442,91.40463 c 5.06947,-1.94526 9.62611,-1.14947 14.94316,-0.84295 -3.48379,3.81979 -10.59874,1.63284 -14.94316,0.84295 z"
     id="path144"
     style="fill:#a1a29e" />
  <path
     d="m 12.184421,90.67368 c 4.992842,-0.31831 10.026949,0.17684 14.984419,-0.63663 -2.67621,4.58021 -10.793261,2.78232 -14.984419,0.63663 z"
     id="path146"
     style="fill:#a2a39f" />
</svg>
