<?xml version="1.0" encoding="UTF-8"?>
<svg xmlns="http://www.w3.org/2000/svg" xmlns:xlink="http://www.w3.org/1999/xlink" width="35pt" height="25pt" viewBox="0 0 35 25" version="1.1">
<g id="surface1">
<path style=" stroke:none;fill-rule:nonzero;fill:rgb(98.431373%,98.431373%,98.039216%);fill-opacity:1;" d="M 0 9.722656 L 35 9.722656 L 35 15.25 L 0 15.25 Z M 0 9.722656 "/>
<path style=" stroke:none;fill-rule:nonzero;fill:rgb(91.372549%,91.372549%,90.980392%);fill-opacity:1;" d="M 1.027344 10.285156 C 1.679688 9.734375 2.8125 10.015625 3.628906 9.960938 C 4.789062 9.957031 6.402344 9.53125 7.191406 10.640625 C 7.839844 10.84375 8.519531 11.558594 9.210938 11.105469 C 10.191406 10.417969 11.769531 10.941406 12.066406 12.117188 C 12.308594 13.078125 12.1875 14.523438 11.113281 14.941406 C 10.164062 15.351562 9.171875 14.691406 8.207031 14.992188 C 7.4375 15.167969 6.667969 14.871094 5.898438 15.058594 C 4.53125 14.582031 3.09375 15.449219 1.75 14.878906 C 1.320312 14.703125 0.90625 13.914062 1.359375 13.585938 C 1.382812 13.746094 1.40625 13.90625 1.457031 14.058594 C 1.664062 14.988281 2.90625 14.785156 3.589844 14.78125 C 5.128906 14.425781 6.683594 15.023438 8.238281 14.742188 C 9.148438 14.335938 10.070312 15.160156 10.960938 14.699219 C 12.472656 14.117188 12.191406 11.070312 10.390625 11.105469 C 9.738281 11.003906 9.007812 11.167969 8.628906 11.757812 C 8.308594 11.640625 8.0625 11.382812 7.738281 11.269531 C 7.539062 11.179688 7.328125 11.117188 7.113281 11.070312 C 6.863281 10.863281 6.617188 10.65625 6.375 10.441406 C 5.960938 9.988281 5.207031 10.289062 4.660156 10.324219 C 3.453125 10.253906 2.238281 10.265625 1.027344 10.285156 Z M 1.027344 10.285156 "/>
<path style=" stroke:none;fill-rule:nonzero;fill:rgb(91.764706%,91.764706%,91.764706%);fill-opacity:1;" d="M 32.253906 10.195312 C 32.746094 9.632812 34 9.867188 34.351562 10.554688 C 34.726562 11.511719 34.296875 12.613281 34.792969 13.527344 C 35.167969 14.183594 34.574219 15.050781 33.839844 15.019531 C 33.136719 15.066406 32.410156 15.128906 31.710938 15.035156 C 31.238281 14.816406 30.675781 14.660156 30.199219 14.957031 C 29.246094 15.507812 28.269531 14.5625 27.296875 15.011719 C 26.128906 15.371094 24.960938 14.683594 23.820312 15.023438 C 21.851562 15.101562 19.871094 15.078125 17.902344 15.039062 C 17.085938 14.785156 16.878906 13.9375 16.660156 13.230469 C 16.183594 13.523438 16.5 14.394531 15.964844 14.726562 C 15.242188 15.230469 14.207031 15.132812 13.363281 14.960938 C 12.832031 14.847656 12.285156 14 12.777344 13.585938 C 12.800781 13.789062 12.859375 13.984375 12.964844 14.15625 C 13.410156 15.101562 14.835938 14.84375 15.628906 14.582031 C 16.273438 14.183594 15.871094 13.183594 16.515625 12.785156 C 16.769531 12.667969 16.957031 12.90625 17.128906 13.050781 C 17.144531 13.320312 17.15625 13.589844 17.214844 13.855469 C 17.226562 14.488281 17.933594 14.878906 18.507812 14.792969 C 20.476562 14.707031 22.472656 14.96875 24.417969 14.636719 C 25.527344 14.753906 26.664062 14.941406 27.761719 14.652344 C 28.277344 14.488281 28.757812 14.789062 29.257812 14.835938 C 29.851562 14.953125 30.382812 14.503906 30.941406 14.421875 C 31.925781 14.90625 33.152344 14.976562 34.191406 14.625 C 34.824219 14.308594 34.539062 13.5625 34.324219 13.070312 C 34.058594 12.230469 34.707031 10.609375 33.535156 10.261719 C 33.117188 10.148438 32.679688 10.191406 32.253906 10.195312 Z M 32.253906 10.195312 "/>
<path style=" stroke:none;fill-rule:nonzero;fill:rgb(89.411765%,89.803922%,88.627451%);fill-opacity:1;" d="M 13.3125 10.214844 C 13.5625 9.847656 14.101562 10.074219 14.460938 10 C 15.425781 10.121094 16.714844 9.601562 17.382812 10.574219 C 18.003906 11.257812 19.105469 10.808594 19.882812 10.941406 C 21.230469 11.238281 22.75 10.394531 23.949219 11.28125 C 24.148438 11.378906 24.367188 11.417969 24.605469 11.398438 C 24.449219 11.558594 24.292969 11.722656 24.199219 11.929688 C 23.910156 11.730469 23.628906 11.507812 23.304688 11.363281 C 22.9375 11.082031 22.4375 11.019531 22.007812 11.199219 C 21.441406 11.488281 20.636719 10.835938 20.234375 11.46875 C 20.128906 11.46875 20.023438 11.46875 19.917969 11.464844 C 19.710938 10.960938 18.570312 11.007812 18.289062 11.484375 C 18.261719 11.449219 18.207031 11.382812 18.179688 11.347656 C 18.015625 11.0625 17.597656 11.25 17.328125 11.179688 C 17.121094 10.957031 16.933594 10.71875 16.71875 10.503906 C 16.613281 10.371094 16.492188 10.214844 16.304688 10.214844 C 15.3125 10.277344 14.308594 10.339844 13.3125 10.214844 Z M 13.3125 10.214844 "/>
<path style=" stroke:none;fill-rule:nonzero;fill:rgb(89.019608%,89.411765%,88.627451%);fill-opacity:1;" d="M 25.960938 10.191406 C 26.347656 9.707031 27.347656 9.996094 27.691406 10.488281 C 27.8125 10.8125 27.964844 11.230469 28.378906 11.226562 C 28.167969 11.355469 27.984375 11.523438 27.808594 11.695312 C 27.550781 11.28125 27.523438 10.722656 27.109375 10.421875 C 26.828125 10.066406 26.34375 10.328125 25.960938 10.191406 Z M 25.960938 10.191406 "/>
<path style=" stroke:none;fill-rule:nonzero;fill:rgb(71.764706%,88.627451%,41.176471%);fill-opacity:1;" d="M 4.660156 10.324219 C 5.207031 10.289062 5.960938 9.988281 6.375 10.441406 C 6.152344 11.269531 6.402344 11.378906 7.113281 11.070312 C 7.328125 11.117188 7.539062 11.179688 7.738281 11.269531 C 7.828125 11.457031 7.921875 11.648438 8.019531 11.832031 C 8.128906 12.386719 7.679688 13.34375 8.476562 13.425781 C 8.769531 14.480469 7.503906 14.109375 6.914062 14.132812 C 6.445312 13.851562 5.914062 14.273438 5.40625 14.179688 C 4.933594 14.324219 4.730469 13.960938 4.652344 13.597656 C 4.796875 13.414062 5.003906 13.316406 5.226562 13.265625 C 5.246094 12.972656 5.257812 12.679688 5.253906 12.390625 C 5.253906 12.230469 5.253906 11.910156 5.253906 11.75 C 5.492188 11.175781 5.078125 11.070312 4.691406 10.945312 C 4.730469 11.277344 4.757812 11.613281 4.710938 11.945312 C 4.457031 12.121094 4.140625 12.089844 3.847656 12.113281 C 3.5625 11.820312 3.984375 11.148438 3.515625 11.105469 C 3.261719 11.742188 3.453125 12.527344 3.414062 13.214844 C 3.484375 13.214844 3.621094 13.21875 3.691406 13.222656 C 3.808594 13.222656 3.925781 13.222656 4.042969 13.21875 C 4.152344 13.304688 4.257812 13.394531 4.359375 13.484375 C 4.328125 13.679688 4.296875 13.875 4.246094 14.066406 C 3.46875 14.195312 2.683594 14.117188 1.902344 14.167969 C 1.855469 14.167969 1.761719 14.171875 1.714844 14.175781 C 1.628906 14.136719 1.542969 14.097656 1.457031 14.058594 C 1.40625 13.90625 1.382812 13.746094 1.359375 13.585938 C 1.375 13.476562 1.421875 13.378906 1.496094 13.292969 C 1.613281 13.269531 1.730469 13.246094 1.851562 13.230469 C 2.351562 13.351562 2.203125 12.835938 2.210938 12.496094 C 2.210938 12.347656 2.210938 12.195312 2.207031 12.042969 C 2.207031 11.761719 2.222656 11.480469 2.203125 11.199219 C 1.738281 11.054688 1.976562 11.664062 1.914062 11.949219 C 1.761719 12.042969 1.605469 12.128906 1.445312 12.21875 C 1.296875 12.160156 1.144531 12.097656 0.996094 12.035156 C 0.886719 11.546875 0.925781 11.035156 0.914062 10.539062 C 0.910156 10.4375 0.945312 10.351562 1.027344 10.285156 C 2.238281 10.265625 3.453125 10.253906 4.660156 10.324219 Z M 4.660156 10.324219 "/>
<path style=" stroke:none;fill-rule:nonzero;fill:rgb(71.764706%,89.019608%,40.392157%);fill-opacity:1;" d="M 12.769531 10.730469 C 12.757812 10.449219 13.042969 10.195312 13.3125 10.214844 C 14.308594 10.339844 15.3125 10.277344 16.304688 10.214844 C 16.492188 10.214844 16.613281 10.371094 16.71875 10.503906 C 16.695312 10.792969 16.671875 11.078125 16.664062 11.363281 C 16.867188 11.242188 17.089844 11.175781 17.328125 11.179688 C 17.597656 11.25 18.015625 11.0625 18.179688 11.347656 C 18.222656 11.933594 17.996094 12.609375 18.207031 13.160156 C 18.839844 13.808594 19.179688 12.019531 18.527344 12 C 18.261719 11.976562 18.335938 11.667969 18.289062 11.484375 C 18.570312 11.007812 19.710938 10.960938 19.917969 11.464844 C 19.910156 12.078125 19.851562 12.691406 19.910156 13.300781 C 20.289062 13.398438 21.070312 13.429688 20.824219 12.761719 C 21.273438 11.890625 20.015625 12.214844 20.234375 11.46875 C 20.636719 10.835938 21.441406 11.488281 22.007812 11.199219 C 22.4375 11.019531 22.9375 11.082031 23.304688 11.363281 C 23.394531 11.550781 23.484375 11.738281 23.589844 11.917969 C 23.601562 12.371094 23.535156 12.828125 23.597656 13.277344 C 24.089844 13.226562 24.238281 13.867188 23.917969 14.128906 C 22.953125 14.28125 22.046875 13.902344 21.09375 14.140625 C 20.367188 14 19.59375 14.304688 18.898438 14.019531 C 18.585938 14.144531 18.269531 14.257812 17.929688 14.28125 C 17.789062 14.230469 17.648438 14.183594 17.507812 14.132812 C 17.410156 14.039062 17.3125 13.945312 17.214844 13.855469 C 17.15625 13.589844 17.144531 13.320312 17.128906 13.050781 C 17.128906 12.890625 17.132812 12.734375 17.132812 12.574219 C 17.136719 12.453125 17.136719 12.332031 17.128906 12.207031 C 17.066406 11.917969 16.589844 11.746094 16.433594 12.085938 C 15.453125 12.519531 15.964844 11.128906 15.410156 11.085938 C 15.605469 11.625 15.582031 12.21875 15.6875 12.78125 C 15.601562 12.917969 15.503906 13.046875 15.40625 13.175781 C 15.03125 13.15625 14.839844 12.875 14.742188 12.546875 C 14.507812 13.195312 14.859375 13.304688 15.367188 13.230469 C 15.597656 13.492188 15.640625 13.890625 15.359375 14.132812 C 14.648438 14.160156 13.941406 14.136719 13.234375 14.160156 C 13.167969 14.160156 13.03125 14.160156 12.964844 14.15625 C 12.859375 13.984375 12.800781 13.789062 12.777344 13.585938 C 12.789062 13.4375 12.902344 13.335938 12.996094 13.234375 C 13.148438 13.230469 13.296875 13.226562 13.449219 13.214844 C 13.410156 12.84375 14.0625 11.019531 13.050781 11.21875 C 12.910156 11.085938 12.789062 10.929688 12.769531 10.730469 Z M 12.769531 10.730469 "/>
<path style=" stroke:none;fill-rule:nonzero;fill:rgb(71.764706%,88.627451%,41.960784%);fill-opacity:1;" d="M 25.503906 11.097656 C 25.148438 10.734375 25.457031 10.101562 25.960938 10.191406 C 26.34375 10.328125 26.828125 10.066406 27.109375 10.421875 C 27.105469 10.550781 27.097656 10.675781 27.097656 10.800781 C 27.078125 11.628906 27.054688 12.453125 27.09375 13.277344 C 27.582031 13.242188 27.800781 13.839844 27.425781 14.136719 C 26.992188 14.148438 26.535156 14.222656 26.128906 14.035156 C 25.824219 14.121094 25.527344 14.265625 25.203125 14.289062 C 25.027344 14.214844 24.855469 14.132812 24.6875 14.042969 C 24.25 13.625 24.042969 13.03125 24.042969 12.433594 C 24.101562 12.269531 24.148438 12.097656 24.199219 11.929688 C 24.292969 11.722656 24.449219 11.558594 24.605469 11.398438 C 24.816406 11.125 25.199219 11.148438 25.503906 11.097656 Z M 25.503906 11.097656 "/>
<path style=" stroke:none;fill-rule:nonzero;fill:rgb(72.156863%,88.627451%,41.960784%);fill-opacity:1;" d="M 32.253906 10.195312 C 32.679688 10.191406 33.117188 10.148438 33.535156 10.261719 C 33.570312 10.347656 33.605469 10.4375 33.636719 10.527344 C 33.636719 10.648438 33.632812 10.769531 33.636719 10.886719 C 33.613281 11.6875 33.601562 12.492188 33.628906 13.292969 C 33.742188 13.308594 33.855469 13.320312 33.96875 13.328125 C 34.265625 13.539062 34.175781 13.898438 33.988281 14.148438 C 33.15625 14.101562 32.445312 13.976562 31.652344 14.28125 C 31.390625 14.148438 31.144531 13.984375 30.929688 13.78125 C 30.609375 13.1875 30.527344 12.492188 30.75 11.847656 C 30.875 11.695312 31.003906 11.546875 31.125 11.394531 C 31.339844 11.121094 31.746094 11.164062 32.042969 11.097656 C 31.785156 10.789062 31.867188 10.339844 32.253906 10.195312 Z M 32.253906 10.195312 "/>
<path style=" stroke:none;fill-rule:nonzero;fill:rgb(83.137255%,83.137255%,83.137255%);fill-opacity:1;" d="M 33.535156 10.261719 C 34.707031 10.609375 34.058594 12.230469 34.324219 13.070312 C 34.539062 13.5625 34.824219 14.308594 34.191406 14.625 C 33.152344 14.976562 31.925781 14.90625 30.941406 14.421875 C 30.382812 14.503906 29.851562 14.953125 29.257812 14.835938 C 28.757812 14.789062 28.277344 14.488281 27.761719 14.652344 C 26.664062 14.941406 25.527344 14.753906 24.417969 14.636719 C 22.472656 14.96875 20.476562 14.707031 18.507812 14.792969 C 17.933594 14.878906 17.226562 14.488281 17.214844 13.855469 C 17.3125 13.945312 17.410156 14.039062 17.507812 14.132812 C 17.648438 14.25 17.925781 14.480469 18.0625 14.597656 C 20.023438 14.570312 21.996094 14.710938 23.949219 14.511719 C 24.84375 14.257812 25.707031 14.777344 26.621094 14.609375 C 27.308594 14.652344 27.984375 14.152344 28.65625 14.496094 C 29.445312 14.957031 30.214844 14.414062 30.9375 14.15625 C 31.855469 14.734375 33.019531 14.742188 34.046875 14.476562 C 34.515625 14.257812 34.363281 13.671875 34.207031 13.28125 C 33.859375 12.410156 34.425781 11.21875 33.636719 10.527344 C 33.605469 10.4375 33.570312 10.347656 33.535156 10.261719 Z M 33.535156 10.261719 "/>
<path style=" stroke:none;fill-rule:nonzero;fill:rgb(99.215686%,99.607843%,98.431373%);fill-opacity:1;" d="M 1.144531 10.886719 C 0.785156 10.179688 1.578125 10.5 1.910156 10.484375 C 2.507812 10.546875 3.121094 10.625 3.714844 10.496094 C 3.996094 10.558594 4.859375 10.167969 4.519531 10.921875 C 4.664062 11.308594 4.523438 12.3125 3.984375 11.816406 C 4.199219 11.382812 3.726562 10.558594 3.289062 11.078125 C 3.160156 11.753906 3.226562 12.511719 3.230469 13.21875 C 3.289062 13.746094 4.433594 12.988281 4.042969 13.84375 C 3.339844 14.097656 2.367188 13.957031 1.628906 13.898438 C 1.316406 13.378906 2 13.371094 2.375 13.390625 C 2.59375 12.910156 2.441406 12.347656 2.492188 11.839844 C 2.648438 11.441406 2.253906 10.632812 1.773438 11.035156 C 1.714844 11.335938 1.886719 12.222656 1.21875 11.925781 C 1.015625 11.609375 1.199219 11.230469 1.144531 10.886719 Z M 1.144531 10.886719 "/>
<path style=" stroke:none;fill-rule:nonzero;fill:rgb(89.019608%,96.078431%,75.686275%);fill-opacity:1;" d="M 1.910156 10.484375 C 2.511719 10.472656 3.117188 10.40625 3.714844 10.496094 C 3.121094 10.625 2.507812 10.546875 1.910156 10.484375 Z M 1.910156 10.484375 "/>
<path style=" stroke:none;fill-rule:nonzero;fill:rgb(99.607843%,100%,98.823529%);fill-opacity:1;" d="M 4.976562 10.734375 C 4.839844 10.15625 5.746094 10.5625 6.074219 10.464844 C 6.160156 10.84375 5.925781 11.328125 6.179688 11.65625 C 6.597656 11.34375 7.164062 11.125 7.613281 11.507812 C 7.957031 12.097656 7.515625 12.875 7.851562 13.472656 C 8.597656 13.121094 8.3125 14.398438 7.738281 13.964844 C 7.496094 14.0625 6.457031 13.992188 6.941406 13.535156 C 7.402344 13.15625 7.324219 12.25 6.886719 11.851562 C 5.996094 11.628906 5.921875 12.933594 6.152344 13.425781 C 6.617188 13.523438 6.484375 14.253906 5.894531 13.964844 C 5.679688 13.867188 4.929688 14.171875 4.972656 13.6875 C 4.847656 13.304688 5.488281 13.691406 5.460938 13.339844 C 5.515625 12.59375 5.640625 11.8125 5.464844 11.074219 C 5.449219 10.800781 4.980469 11.023438 4.976562 10.734375 Z M 4.976562 10.734375 "/>
<path style=" stroke:none;fill-rule:nonzero;fill:rgb(72.156863%,72.54902%,71.764706%);fill-opacity:1;" d="M 6.375 10.441406 C 6.617188 10.65625 6.863281 10.863281 7.113281 11.070312 C 6.402344 11.378906 6.152344 11.269531 6.375 10.441406 Z M 6.375 10.441406 "/>
<path style=" stroke:none;fill-rule:nonzero;fill:rgb(99.215686%,99.607843%,98.431373%);fill-opacity:1;" d="M 13.097656 10.992188 C 12.742188 10.441406 13.472656 10.378906 13.882812 10.484375 C 14.417969 10.558594 14.96875 10.597656 15.503906 10.5 C 15.75 10.488281 16.238281 10.46875 16.484375 10.460938 C 16.332031 10.925781 16.777344 11.960938 16.050781 11.917969 C 15.601562 11.707031 16.191406 11.148438 15.722656 10.9375 C 15.324219 10.988281 14.742188 10.714844 14.472656 11.132812 C 14.332031 11.4375 14.476562 12.03125 14.902344 11.929688 C 15.113281 11.753906 15.007812 11.285156 15.378906 11.378906 C 15.394531 11.863281 15.390625 12.351562 15.371094 12.839844 C 14.964844 13.230469 15.210938 11.914062 14.574219 12.402344 C 14.351562 12.691406 14.300781 13.699219 15.015625 13.410156 C 15.539062 13.355469 15.269531 14.363281 14.738281 13.960938 C 14.234375 13.773438 13.191406 14.347656 12.992188 13.683594 C 13.027344 13.117188 14.085938 13.71875 13.722656 12.855469 C 13.53125 12.273438 14.242188 10.800781 13.097656 10.992188 Z M 13.097656 10.992188 "/>
<path style=" stroke:none;fill-rule:nonzero;fill:rgb(88.627451%,96.078431%,75.686275%);fill-opacity:1;" d="M 13.882812 10.484375 C 14.421875 10.453125 14.964844 10.445312 15.503906 10.5 C 14.96875 10.597656 14.417969 10.558594 13.882812 10.484375 Z M 13.882812 10.484375 "/>
<path style=" stroke:none;fill-rule:nonzero;fill:rgb(99.215686%,99.607843%,98.039216%);fill-opacity:1;" d="M 25.605469 10.464844 C 26.003906 10.546875 26.554688 10.28125 26.882812 10.574219 C 26.921875 11.546875 26.867188 12.515625 26.902344 13.484375 C 27.664062 13.082031 27.390625 14.40625 26.804688 13.964844 C 26.023438 14.476562 26.59375 13.464844 26.171875 13.597656 C 25.902344 13.839844 25.566406 14.167969 25.171875 14.023438 C 23.917969 13.714844 23.992188 11.242188 25.421875 11.378906 C 25.738281 11.261719 25.996094 11.851562 26.242188 11.542969 C 26.699219 10.648438 25.386719 11.117188 25.605469 10.464844 Z M 25.605469 10.464844 "/>
<path style=" stroke:none;fill-rule:nonzero;fill:rgb(75.294118%,75.294118%,75.294118%);fill-opacity:1;" d="M 27.109375 10.421875 C 27.523438 10.722656 27.550781 11.28125 27.808594 11.695312 C 27.734375 11.902344 27.65625 12.109375 27.589844 12.324219 C 27.222656 11.882812 27.546875 11.199219 27.097656 10.800781 C 27.097656 10.675781 27.105469 10.550781 27.109375 10.421875 Z M 27.109375 10.421875 "/>
<path style=" stroke:none;fill-rule:nonzero;fill:rgb(99.215686%,99.607843%,98.039216%);fill-opacity:1;" d="M 32.148438 10.464844 C 32.542969 10.546875 33.09375 10.28125 33.421875 10.574219 C 33.460938 11.546875 33.410156 12.515625 33.441406 13.484375 C 34.203125 13.082031 33.929688 14.40625 33.34375 13.964844 C 32.5625 14.476562 33.132812 13.464844 32.710938 13.597656 C 32.441406 13.839844 32.105469 14.167969 31.710938 14.023438 C 30.457031 13.714844 30.53125 11.242188 31.964844 11.378906 C 32.277344 11.261719 32.535156 11.851562 32.78125 11.542969 C 33.238281 10.648438 31.925781 11.117188 32.148438 10.464844 Z M 32.148438 10.464844 "/>
<path style=" stroke:none;fill-rule:nonzero;fill:rgb(91.372549%,91.372549%,90.980392%);fill-opacity:1;" d="M 1.496094 13.292969 C 0.914062 12.585938 0.113281 11.363281 0.914062 10.539062 C 0.925781 11.035156 0.886719 11.546875 0.996094 12.035156 C 1.015625 12.625 2.144531 12.566406 1.851562 13.230469 C 1.730469 13.246094 1.613281 13.269531 1.496094 13.292969 Z M 1.496094 13.292969 "/>
<path style=" stroke:none;fill-rule:nonzero;fill:rgb(69.019608%,69.803922%,67.843137%);fill-opacity:1;" d="M 16.71875 10.503906 C 16.933594 10.71875 17.121094 10.957031 17.328125 11.179688 C 17.089844 11.175781 16.867188 11.242188 16.664062 11.363281 C 16.671875 11.078125 16.695312 10.792969 16.71875 10.503906 Z M 16.71875 10.503906 "/>
<path style=" stroke:none;fill-rule:nonzero;fill:rgb(72.941176%,73.333333%,72.941176%);fill-opacity:1;" d="M 33.636719 10.527344 C 34.425781 11.21875 33.859375 12.410156 34.207031 13.28125 C 34.363281 13.671875 34.515625 14.257812 34.046875 14.476562 C 33.019531 14.742188 31.855469 14.734375 30.9375 14.15625 C 30.214844 14.414062 29.445312 14.957031 28.65625 14.496094 C 27.984375 14.152344 27.308594 14.652344 26.621094 14.609375 C 25.707031 14.777344 24.84375 14.257812 23.949219 14.511719 C 21.996094 14.710938 20.023438 14.570312 18.0625 14.597656 C 17.925781 14.480469 17.648438 14.25 17.507812 14.132812 C 17.648438 14.183594 17.789062 14.230469 17.929688 14.28125 C 19.765625 14.636719 21.691406 14.296875 23.5625 14.402344 C 23.941406 14.296875 24.300781 14.125 24.6875 14.042969 C 24.855469 14.132812 25.027344 14.214844 25.203125 14.289062 C 26.210938 14.710938 27.222656 14.285156 28.195312 14.027344 C 28.398438 14.105469 28.601562 14.183594 28.804688 14.265625 C 29.589844 14.765625 30.261719 14.121094 30.929688 13.78125 C 31.144531 13.984375 31.390625 14.148438 31.652344 14.28125 C 32.332031 14.40625 33.445312 14.746094 33.988281 14.148438 C 34.175781 13.898438 34.265625 13.539062 33.96875 13.328125 C 33.6875 12.570312 34.253906 11.496094 33.636719 10.886719 C 33.632812 10.769531 33.636719 10.648438 33.636719 10.527344 Z M 33.636719 10.527344 "/>
<path style=" stroke:none;fill-rule:nonzero;fill:rgb(90.196078%,90.196078%,90.196078%);fill-opacity:1;" d="M 13.074219 12.027344 C 12.902344 11.632812 12.371094 11.15625 12.769531 10.730469 C 12.789062 10.929688 12.910156 11.085938 13.050781 11.21875 C 13.488281 11.804688 13.46875 12.519531 13.449219 13.214844 C 13.296875 13.226562 13.148438 13.230469 12.996094 13.234375 C 13.085938 12.847656 13.316406 12.402344 13.074219 12.027344 Z M 13.074219 12.027344 "/>
<path style=" stroke:none;fill-rule:nonzero;fill:rgb(61.568627%,61.960784%,61.176471%);fill-opacity:1;" d="M 27.097656 10.800781 C 27.546875 11.199219 27.222656 11.882812 27.589844 12.324219 C 27.46875 12.949219 27.703125 13.621094 28.195312 14.027344 C 27.222656 14.285156 26.210938 14.710938 25.203125 14.289062 C 25.527344 14.265625 25.824219 14.121094 26.128906 14.035156 C 26.535156 14.222656 26.992188 14.148438 27.425781 14.136719 C 27.800781 13.839844 27.582031 13.242188 27.09375 13.277344 C 27.054688 12.453125 27.078125 11.628906 27.097656 10.800781 Z M 27.097656 10.800781 "/>
<path style=" stroke:none;fill-rule:nonzero;fill:rgb(54.509804%,55.686275%,52.54902%);fill-opacity:1;" d="M 4.691406 10.945312 C 5.078125 11.070312 5.492188 11.175781 5.253906 11.75 C 5.074219 11.820312 4.890625 11.878906 4.710938 11.945312 C 4.757812 11.613281 4.730469 11.277344 4.691406 10.945312 Z M 4.691406 10.945312 "/>
<path style=" stroke:none;fill-rule:nonzero;fill:rgb(86.666667%,87.058824%,85.882353%);fill-opacity:1;" d="M 28.816406 11.097656 C 29.515625 10.519531 30.359375 11.316406 31.125 11.394531 C 31.003906 11.546875 30.875 11.695312 30.75 11.847656 C 30.632812 11.816406 30.511719 11.785156 30.394531 11.753906 C 30.070312 11.210938 29.425781 11.023438 28.816406 11.097656 Z M 28.816406 11.097656 "/>
<path style=" stroke:none;fill-rule:nonzero;fill:rgb(61.176471%,61.176471%,61.176471%);fill-opacity:1;" d="M 33.636719 10.886719 C 34.253906 11.496094 33.6875 12.570312 33.96875 13.328125 C 33.855469 13.320312 33.742188 13.308594 33.628906 13.292969 C 33.601562 12.492188 33.613281 11.6875 33.636719 10.886719 Z M 33.636719 10.886719 "/>
<path style=" stroke:none;fill-rule:nonzero;fill:rgb(52.941176%,54.117647%,50.980392%);fill-opacity:1;" d="M 3.515625 11.105469 C 3.984375 11.148438 3.5625 11.820312 3.847656 12.113281 C 3.609375 12.4375 3.546875 12.84375 3.691406 13.222656 C 3.621094 13.21875 3.484375 13.214844 3.414062 13.214844 C 3.453125 12.527344 3.261719 11.742188 3.515625 11.105469 Z M 3.515625 11.105469 "/>
<path style=" stroke:none;fill-rule:nonzero;fill:rgb(85.490196%,94.901961%,68.627451%);fill-opacity:1;" d="M 5.464844 11.074219 C 5.640625 11.8125 5.515625 12.59375 5.460938 13.339844 C 5.4375 12.585938 5.386719 11.828125 5.464844 11.074219 Z M 5.464844 11.074219 "/>
<path style=" stroke:none;fill-rule:nonzero;fill:rgb(72.156863%,88.627451%,42.352941%);fill-opacity:1;" d="M 8.628906 11.757812 C 9.007812 11.167969 9.738281 11.003906 10.390625 11.105469 C 10.660156 11.222656 10.914062 11.371094 11.136719 11.5625 C 11.203125 11.742188 11.277344 11.917969 11.363281 12.089844 C 11.488281 12.664062 10.867188 13.015625 11.230469 13.585938 C 10.984375 14.222656 10.152344 14.261719 9.558594 14.253906 C 9.453125 14.203125 9.339844 14.15625 9.230469 14.113281 C 8.554688 13.738281 8.324219 12.941406 8.460938 12.222656 C 8.511719 12.066406 8.570312 11.914062 8.628906 11.757812 Z M 8.628906 11.757812 "/>
<path style=" stroke:none;fill-rule:nonzero;fill:rgb(83.137255%,83.137255%,83.137255%);fill-opacity:1;" d="M 10.390625 11.105469 C 12.191406 11.070312 12.472656 14.117188 10.960938 14.699219 C 10.070312 15.160156 9.148438 14.335938 8.238281 14.742188 C 6.683594 15.023438 5.128906 14.425781 3.589844 14.78125 C 2.90625 14.785156 1.664062 14.988281 1.457031 14.058594 C 1.542969 14.097656 1.628906 14.136719 1.714844 14.175781 C 2.480469 14.992188 3.863281 14.667969 4.789062 14.238281 C 6.210938 14.960938 7.863281 14.476562 9.363281 14.460938 C 10.03125 14.761719 10.941406 14.78125 11.421875 14.140625 C 11.800781 13.34375 11.972656 12.121094 11.136719 11.5625 C 10.914062 11.371094 10.660156 11.222656 10.390625 11.105469 Z M 10.390625 11.105469 "/>
<path style=" stroke:none;fill-rule:nonzero;fill:rgb(54.901961%,63.921569%,38.431373%);fill-opacity:1;" d="M 14.765625 11.117188 C 15.746094 10.941406 14.792969 11.207031 14.902344 11.554688 C 14.785156 12.070312 14.375 11.253906 14.765625 11.117188 Z M 14.765625 11.117188 "/>
<path style=" stroke:none;fill-rule:nonzero;fill:rgb(56.470588%,59.607843%,50.588235%);fill-opacity:1;" d="M 15.410156 11.085938 C 15.964844 11.128906 15.453125 12.519531 16.433594 12.085938 C 16.589844 11.746094 17.066406 11.917969 17.128906 12.207031 C 16.539062 12.046875 16.03125 12.332031 15.6875 12.78125 C 15.582031 12.21875 15.605469 11.625 15.410156 11.085938 Z M 15.410156 11.085938 "/>
<path style=" stroke:none;fill-rule:nonzero;fill:rgb(72.156863%,88.235294%,42.745098%);fill-opacity:1;" d="M 28.378906 11.226562 C 28.515625 11.152344 28.660156 11.089844 28.816406 11.097656 C 29.425781 11.023438 30.070312 11.210938 30.394531 11.753906 C 30.4375 12.167969 30.652344 12.667969 30.242188 12.945312 C 30.851562 13.90625 29.546875 14.371094 28.804688 14.265625 C 28.601562 14.183594 28.398438 14.105469 28.195312 14.027344 C 27.703125 13.621094 27.46875 12.949219 27.589844 12.324219 C 27.65625 12.109375 27.734375 11.902344 27.808594 11.695312 C 27.984375 11.523438 28.167969 11.355469 28.378906 11.226562 Z M 28.378906 11.226562 "/>
<path style=" stroke:none;fill-rule:nonzero;fill:rgb(49.019608%,49.019608%,48.627451%);fill-opacity:1;" d="M 1.914062 11.949219 C 1.976562 11.664062 1.738281 11.054688 2.203125 11.199219 C 2.222656 11.480469 2.207031 11.761719 2.207031 12.042969 C 2.109375 12.011719 2.011719 11.980469 1.914062 11.949219 Z M 1.914062 11.949219 "/>
<path style=" stroke:none;fill-rule:nonzero;fill:rgb(76.862745%,79.215686%,72.941176%);fill-opacity:1;" d="M 13.050781 11.21875 C 14.0625 11.019531 13.410156 12.84375 13.449219 13.214844 C 13.46875 12.519531 13.488281 11.804688 13.050781 11.21875 Z M 13.050781 11.21875 "/>
<path style=" stroke:none;fill-rule:nonzero;fill:rgb(77.647059%,78.039216%,76.862745%);fill-opacity:1;" d="M 7.738281 11.269531 C 8.0625 11.382812 8.308594 11.640625 8.628906 11.757812 C 8.570312 11.914062 8.511719 12.066406 8.460938 12.222656 C 8.316406 12.089844 8.167969 11.960938 8.019531 11.832031 C 7.921875 11.648438 7.828125 11.457031 7.738281 11.269531 Z M 7.738281 11.269531 "/>
<path style=" stroke:none;fill-rule:nonzero;fill:rgb(98.823529%,99.607843%,97.647059%);fill-opacity:1;" d="M 9.707031 11.332031 C 10.460938 11.074219 11.214844 11.820312 11.132812 12.558594 C 10.691406 12.855469 10.023438 12.550781 9.511719 12.691406 C 8.941406 13.042969 9.773438 13.871094 10.226562 13.507812 C 10.5 13.433594 10.773438 12.914062 11.039062 13.246094 C 11.164062 13.625 10.730469 13.921875 10.410156 13.960938 C 9.585938 14.304688 8.515625 13.601562 8.65625 12.671875 C 8.589844 12.050781 9.066406 11.371094 9.707031 11.332031 Z M 9.707031 11.332031 "/>
<path style=" stroke:none;fill-rule:nonzero;fill:rgb(99.215686%,100%,98.823529%);fill-opacity:1;" d="M 21.851562 11.589844 C 22.257812 11.070312 23.367188 11.273438 23.304688 12.023438 C 23.335938 12.460938 23.21875 12.921875 23.363281 13.34375 C 23.472656 13.617188 24.117188 13.433594 23.792969 13.898438 C 23.460938 13.851562 22.175781 14.339844 22.394531 13.613281 C 23.023438 13.332031 22.902344 12.285156 22.449219 11.851562 C 21.53125 11.609375 21.398438 12.980469 21.769531 13.460938 C 22.699219 14.1875 19.898438 14.265625 20.566406 13.535156 C 21.386719 13.546875 20.863281 12.433594 20.992188 11.949219 C 20.800781 11.789062 20.320312 11.882812 20.457031 11.496094 C 20.679688 11.335938 21.578125 11.144531 21.46875 11.660156 C 21.472656 11.867188 21.785156 11.703125 21.851562 11.589844 Z M 21.851562 11.589844 "/>
<path style=" stroke:none;fill-rule:nonzero;fill:rgb(98.823529%,99.607843%,97.647059%);fill-opacity:1;" d="M 28.867188 11.332031 C 29.617188 11.074219 30.375 11.820312 30.292969 12.558594 C 29.847656 12.855469 29.183594 12.550781 28.667969 12.691406 C 28.101562 13.042969 28.929688 13.871094 29.386719 13.507812 C 29.660156 13.433594 29.929688 12.914062 30.199219 13.246094 C 30.324219 13.625 29.886719 13.921875 29.566406 13.960938 C 28.746094 14.304688 27.675781 13.601562 27.816406 12.671875 C 27.746094 12.050781 28.222656 11.371094 28.867188 11.332031 Z M 28.867188 11.332031 "/>
<path style=" stroke:none;fill-rule:nonzero;fill:rgb(99.215686%,100%,98.823529%);fill-opacity:1;" d="M 16.867188 11.496094 C 17.117188 11.195312 17.628906 11.484375 17.957031 11.382812 C 18.046875 12.035156 17.800781 12.769531 18.082031 13.378906 C 18.949219 13.925781 19.277344 12.5625 19.011719 11.992188 C 18.972656 11.730469 18.519531 11.9375 18.511719 11.652344 C 18.484375 11.113281 19.324219 11.492188 19.617188 11.382812 C 19.621094 12.035156 19.582031 12.691406 19.683594 13.339844 C 19.65625 13.691406 20.296875 13.304688 20.171875 13.6875 C 20.191406 14.1875 18.941406 14.175781 19.140625 13.582031 C 18.679688 13.925781 17.890625 14.3125 17.433594 13.75 C 17.222656 13.175781 17.367188 12.542969 17.304688 11.949219 C 17.121094 11.820312 16.738281 11.8125 16.867188 11.496094 Z M 16.867188 11.496094 "/>
<path style=" stroke:none;fill-rule:nonzero;fill:rgb(59.215686%,60.784314%,56.862745%);fill-opacity:1;" d="M 18.179688 11.347656 C 18.207031 11.382812 18.261719 11.449219 18.289062 11.484375 C 18.335938 11.667969 18.261719 11.976562 18.527344 12 C 19.179688 12.019531 18.839844 13.808594 18.207031 13.160156 C 17.996094 12.609375 18.222656 11.933594 18.179688 11.347656 Z M 18.179688 11.347656 "/>
<path style=" stroke:none;fill-rule:nonzero;fill:rgb(85.490196%,94.901961%,68.235294%);fill-opacity:1;" d="M 19.617188 11.382812 C 19.855469 11.832031 19.644531 12.734375 19.683594 13.339844 C 19.582031 12.691406 19.621094 12.035156 19.617188 11.382812 Z M 19.617188 11.382812 "/>
<path style=" stroke:none;fill-rule:nonzero;fill:rgb(75.686275%,76.470588%,74.509804%);fill-opacity:1;" d="M 23.304688 11.363281 C 23.628906 11.507812 23.910156 11.730469 24.199219 11.929688 C 24.148438 12.097656 24.101562 12.269531 24.042969 12.433594 C 23.898438 12.257812 23.75 12.082031 23.589844 11.917969 C 23.484375 11.738281 23.394531 11.550781 23.304688 11.363281 Z M 23.304688 11.363281 "/>
<path style=" stroke:none;fill-rule:nonzero;fill:rgb(67.058824%,67.843137%,65.882353%);fill-opacity:1;" d="M 19.917969 11.464844 C 20.023438 11.46875 20.128906 11.46875 20.234375 11.46875 C 20.015625 12.214844 21.273438 11.890625 20.824219 12.761719 C 21.070312 13.429688 20.289062 13.398438 19.910156 13.300781 C 19.851562 12.691406 19.910156 12.078125 19.917969 11.464844 Z M 19.917969 11.464844 "/>
<path style=" stroke:none;fill-rule:nonzero;fill:rgb(73.72549%,73.72549%,73.333333%);fill-opacity:1;" d="M 11.136719 11.5625 C 11.972656 12.121094 11.800781 13.34375 11.421875 14.140625 C 10.941406 14.78125 10.03125 14.761719 9.363281 14.460938 C 7.863281 14.476562 6.210938 14.960938 4.789062 14.238281 C 3.863281 14.667969 2.480469 14.992188 1.714844 14.175781 C 1.761719 14.171875 1.855469 14.167969 1.902344 14.167969 C 2.558594 14.503906 3.828125 14.785156 4.246094 14.066406 C 4.296875 13.875 4.328125 13.679688 4.359375 13.484375 C 4.457031 13.523438 4.554688 13.5625 4.652344 13.597656 C 4.730469 13.960938 4.933594 14.324219 5.40625 14.179688 C 5.972656 14.679688 6.789062 14.195312 7.464844 14.402344 C 8.09375 14.585938 8.613281 14.097656 9.230469 14.113281 C 9.339844 14.15625 9.453125 14.203125 9.558594 14.253906 C 10.160156 14.742188 11.335938 14.464844 11.457031 13.625 C 11.496094 13.132812 11.644531 12.539062 11.363281 12.089844 C 11.277344 11.917969 11.203125 11.742188 11.136719 11.5625 Z M 11.136719 11.5625 "/>
<path style=" stroke:none;fill-rule:nonzero;fill:rgb(70.588235%,88.235294%,38.823529%);fill-opacity:1;" d="M 9.789062 11.683594 C 10.121094 11.605469 10.519531 11.941406 10.410156 12.300781 C 10.15625 12.300781 9.648438 12.300781 9.394531 12.300781 C 9.3125 12 9.527344 11.777344 9.789062 11.683594 Z M 9.789062 11.683594 "/>
<path style=" stroke:none;fill-rule:nonzero;fill:rgb(70.588235%,88.235294%,38.823529%);fill-opacity:1;" d="M 28.949219 11.683594 C 29.28125 11.605469 29.679688 11.941406 29.566406 12.300781 C 29.3125 12.300781 28.804688 12.300781 28.550781 12.300781 C 28.46875 12 28.683594 11.777344 28.949219 11.683594 Z M 28.949219 11.683594 "/>
<path style=" stroke:none;fill-rule:nonzero;fill:rgb(69.019608%,69.411765%,68.235294%);fill-opacity:1;" d="M 4.710938 11.945312 C 4.890625 11.878906 5.074219 11.820312 5.253906 11.75 C 5.253906 11.910156 5.253906 12.230469 5.253906 12.390625 C 4.757812 12.324219 3.617188 12.390625 4.042969 13.21875 C 3.925781 13.222656 3.808594 13.222656 3.691406 13.222656 C 3.546875 12.84375 3.609375 12.4375 3.847656 12.113281 C 4.140625 12.089844 4.457031 12.121094 4.710938 11.945312 Z M 4.710938 11.945312 "/>
<path style=" stroke:none;fill-rule:nonzero;fill:rgb(60%,61.176471%,57.254902%);fill-opacity:1;" d="M 30.394531 11.753906 C 30.511719 11.785156 30.632812 11.816406 30.75 11.847656 C 30.527344 12.492188 30.609375 13.1875 30.929688 13.78125 C 30.261719 14.121094 29.589844 14.765625 28.804688 14.265625 C 29.546875 14.371094 30.851562 13.90625 30.242188 12.945312 C 30.652344 12.667969 30.4375 12.167969 30.394531 11.753906 Z M 30.394531 11.753906 "/>
<path style=" stroke:none;fill-rule:nonzero;fill:rgb(61.960784%,62.745098%,60.392157%);fill-opacity:1;" d="M 8.019531 11.832031 C 8.167969 11.960938 8.316406 12.089844 8.460938 12.222656 C 8.324219 12.941406 8.554688 13.738281 9.230469 14.113281 C 8.613281 14.097656 8.09375 14.585938 7.464844 14.402344 C 6.789062 14.195312 5.972656 14.679688 5.40625 14.179688 C 5.914062 14.273438 6.445312 13.851562 6.914062 14.132812 C 7.503906 14.109375 8.769531 14.480469 8.476562 13.425781 C 7.679688 13.34375 8.128906 12.386719 8.019531 11.832031 Z M 8.019531 11.832031 "/>
<path style=" stroke:none;fill-rule:nonzero;fill:rgb(72.156863%,89.019608%,41.176471%);fill-opacity:1;" d="M 25.355469 11.859375 C 26.308594 11.625 26.464844 13.027344 25.859375 13.488281 C 24.851562 13.859375 24.652344 12.269531 25.355469 11.859375 Z M 25.355469 11.859375 "/>
<path style=" stroke:none;fill-rule:nonzero;fill:rgb(72.156863%,89.019608%,41.176471%);fill-opacity:1;" d="M 31.894531 11.859375 C 32.847656 11.625 33.003906 13.027344 32.398438 13.488281 C 31.390625 13.859375 31.191406 12.269531 31.894531 11.859375 Z M 31.894531 11.859375 "/>
<path style=" stroke:none;fill-rule:nonzero;fill:rgb(67.058824%,67.843137%,66.27451%);fill-opacity:1;" d="M 1.445312 12.21875 C 1.605469 12.128906 1.761719 12.042969 1.914062 11.949219 C 2.011719 11.980469 2.109375 12.011719 2.207031 12.042969 C 2.210938 12.195312 2.210938 12.347656 2.210938 12.496094 C 1.949219 12.429688 1.6875 12.347656 1.445312 12.21875 Z M 1.445312 12.21875 "/>
<path style=" stroke:none;fill-rule:nonzero;fill:rgb(47.45098%,49.019608%,45.490196%);fill-opacity:1;" d="M 9.691406 11.945312 C 9.890625 11.921875 10.152344 11.878906 10.238281 12.109375 C 10.054688 12.082031 9.367188 12.246094 9.691406 11.945312 Z M 9.691406 11.945312 "/>
<path style=" stroke:none;fill-rule:nonzero;fill:rgb(62.352941%,63.137255%,61.176471%);fill-opacity:1;" d="M 23.589844 11.917969 C 23.75 12.082031 23.898438 12.257812 24.042969 12.433594 C 24.042969 13.03125 24.25 13.625 24.6875 14.042969 C 24.300781 14.125 23.941406 14.296875 23.5625 14.402344 C 21.691406 14.296875 19.765625 14.636719 17.929688 14.28125 C 18.269531 14.257812 18.585938 14.144531 18.898438 14.019531 C 19.59375 14.304688 20.367188 14 21.09375 14.140625 C 22.046875 13.902344 22.953125 14.28125 23.917969 14.128906 C 24.238281 13.867188 24.089844 13.226562 23.597656 13.277344 C 23.535156 12.828125 23.601562 12.371094 23.589844 11.917969 Z M 23.589844 11.917969 "/>
<path style=" stroke:none;fill-rule:nonzero;fill:rgb(47.45098%,49.019608%,45.490196%);fill-opacity:1;" d="M 28.847656 11.945312 C 29.046875 11.921875 29.308594 11.878906 29.394531 12.109375 C 29.210938 12.082031 28.523438 12.246094 28.847656 11.945312 Z M 28.847656 11.945312 "/>
<path style=" stroke:none;fill-rule:nonzero;fill:rgb(81.568627%,81.568627%,81.568627%);fill-opacity:1;" d="M 0.996094 12.035156 C 1.144531 12.097656 1.296875 12.160156 1.445312 12.21875 C 1.6875 12.347656 1.949219 12.429688 2.210938 12.496094 C 2.203125 12.835938 2.351562 13.351562 1.851562 13.230469 C 2.144531 12.566406 1.015625 12.625 0.996094 12.035156 Z M 0.996094 12.035156 "/>
<path style=" stroke:none;fill-rule:nonzero;fill:rgb(54.117647%,54.509804%,53.72549%);fill-opacity:1;" d="M 6.5625 12.042969 C 7.195312 11.933594 6.855469 12.910156 6.894531 13.296875 C 6.160156 13.796875 6.113281 12.351562 6.5625 12.042969 Z M 6.5625 12.042969 "/>
<path style=" stroke:none;fill-rule:nonzero;fill:rgb(56.078431%,56.862745%,55.294118%);fill-opacity:1;" d="M 22.132812 12.050781 C 22.738281 11.921875 22.691406 13.304688 22.175781 13.460938 C 21.609375 13.351562 21.628906 12.261719 22.132812 12.050781 Z M 22.132812 12.050781 "/>
<path style=" stroke:none;fill-rule:nonzero;fill:rgb(85.098039%,94.901961%,67.45098%);fill-opacity:1;" d="M 23.304688 12.023438 C 23.519531 12.28125 23.382812 12.921875 23.363281 13.34375 C 23.21875 12.921875 23.335938 12.460938 23.304688 12.023438 Z M 23.304688 12.023438 "/>
<path style=" stroke:none;fill-rule:nonzero;fill:rgb(58.039216%,58.823529%,56.078431%);fill-opacity:1;" d="M 25.441406 12.039062 C 26.25 11.882812 26.171875 13.617188 25.359375 13.300781 C 25.097656 12.925781 25.078125 12.347656 25.441406 12.039062 Z M 25.441406 12.039062 "/>
<path style=" stroke:none;fill-rule:nonzero;fill:rgb(58.039216%,58.823529%,56.078431%);fill-opacity:1;" d="M 31.984375 12.039062 C 32.789062 11.882812 32.714844 13.617188 31.898438 13.300781 C 31.640625 12.925781 31.617188 12.347656 31.984375 12.039062 Z M 31.984375 12.039062 "/>
<path style=" stroke:none;fill-rule:nonzero;fill:rgb(63.921569%,64.705882%,62.745098%);fill-opacity:1;" d="M 11.363281 12.089844 C 11.644531 12.539062 11.496094 13.132812 11.457031 13.625 C 11.335938 14.464844 10.160156 14.742188 9.558594 14.253906 C 10.152344 14.261719 10.984375 14.222656 11.230469 13.585938 C 10.867188 13.015625 11.488281 12.664062 11.363281 12.089844 Z M 11.363281 12.089844 "/>
<path style=" stroke:none;fill-rule:nonzero;fill:rgb(66.27451%,66.27451%,65.490196%);fill-opacity:1;" d="M 15.6875 12.78125 C 16.03125 12.332031 16.539062 12.046875 17.128906 12.207031 C 17.136719 12.332031 17.136719 12.453125 17.132812 12.574219 C 16.835938 12.542969 16.5 12.398438 16.238281 12.605469 C 15.589844 13.101562 16.097656 14.351562 15.09375 14.507812 C 14.46875 14.507812 13.71875 14.660156 13.234375 14.160156 C 13.941406 14.136719 14.648438 14.160156 15.359375 14.132812 C 15.640625 13.890625 15.597656 13.492188 15.367188 13.230469 L 15.40625 13.175781 C 15.503906 13.046875 15.601562 12.917969 15.6875 12.78125 Z M 15.6875 12.78125 "/>
<path style=" stroke:none;fill-rule:nonzero;fill:rgb(84.313725%,84.705882%,84.313725%);fill-opacity:1;" d="M 4.042969 13.21875 C 3.617188 12.390625 4.757812 12.324219 5.253906 12.390625 C 5.257812 12.679688 5.246094 12.972656 5.226562 13.265625 C 5.003906 13.316406 4.796875 13.414062 4.652344 13.597656 C 4.554688 13.5625 4.457031 13.523438 4.359375 13.484375 C 4.257812 13.394531 4.152344 13.304688 4.042969 13.21875 Z M 4.042969 13.21875 "/>
<path style=" stroke:none;fill-rule:nonzero;fill:rgb(80.392157%,80.392157%,80%);fill-opacity:1;" d="M 16.238281 12.605469 C 16.5 12.398438 16.835938 12.542969 17.132812 12.574219 C 17.132812 12.734375 17.128906 12.890625 17.128906 13.050781 C 16.957031 12.90625 16.769531 12.667969 16.515625 12.785156 C 15.871094 13.183594 16.273438 14.183594 15.628906 14.582031 C 14.835938 14.84375 13.410156 15.101562 12.964844 14.15625 C 13.03125 14.160156 13.167969 14.160156 13.234375 14.160156 C 13.71875 14.660156 14.46875 14.507812 15.09375 14.507812 C 16.097656 14.351562 15.589844 13.101562 16.238281 12.605469 Z M 16.238281 12.605469 "/>
<path style=" stroke:none;fill-rule:nonzero;fill:rgb(44.705882%,45.882353%,42.745098%);fill-opacity:1;" d="M 14.742188 12.546875 C 14.839844 12.875 15.03125 13.15625 15.40625 13.175781 L 15.367188 13.230469 C 14.859375 13.304688 14.507812 13.195312 14.742188 12.546875 Z M 14.742188 12.546875 "/>
<path style=" stroke:none;fill-rule:nonzero;fill:rgb(47.058824%,47.843137%,45.882353%);fill-opacity:1;" d="M 9.574219 12.949219 C 9.832031 12.949219 10.34375 12.949219 10.601562 12.949219 C 10.367188 13.289062 9.503906 13.597656 9.574219 12.949219 Z M 9.574219 12.949219 "/>
<path style=" stroke:none;fill-rule:nonzero;fill:rgb(47.058824%,47.843137%,45.882353%);fill-opacity:1;" d="M 28.730469 12.949219 C 28.988281 12.949219 29.503906 12.949219 29.761719 12.949219 C 29.523438 13.289062 28.660156 13.597656 28.730469 12.949219 Z M 28.730469 12.949219 "/>
<path style=" stroke:none;fill-rule:nonzero;fill:rgb(63.137255%,63.529412%,61.960784%);fill-opacity:1;" d="M 31.652344 14.28125 C 32.445312 13.976562 33.15625 14.101562 33.988281 14.148438 C 33.445312 14.746094 32.332031 14.40625 31.652344 14.28125 Z M 31.652344 14.28125 "/>
<path style=" stroke:none;fill-rule:nonzero;fill:rgb(63.529412%,63.921569%,62.352941%);fill-opacity:1;" d="M 1.902344 14.167969 C 2.683594 14.117188 3.46875 14.195312 4.246094 14.066406 C 3.828125 14.785156 2.558594 14.503906 1.902344 14.167969 Z M 1.902344 14.167969 "/>
</g>
</svg>
