<?xml version="1.0" encoding="UTF-8"?>
<svg xmlns="http://www.w3.org/2000/svg" xmlns:xlink="http://www.w3.org/1999/xlink" width="292pt" height="25pt" viewBox="0 0 292 25" version="1.1">
<g id="surface1">
<path style=" stroke:none;fill-rule:nonzero;fill:rgb(10.980392%,10.980392%,12.941176%);fill-opacity:1;" d="M 290.441406 21.320312 C 289.59375 21.320312 288.886719 22.027344 288.886719 22.984375 C 288.886719 23.9375 289.59375 24.644531 290.441406 24.644531 C 291.292969 24.644531 292 23.9375 292 22.984375 C 292 22.027344 291.292969 21.320312 290.441406 21.320312 M 234.089844 24.539062 L 241.238281 24.539062 L 241.238281 23.902344 L 240.460938 23.726562 C 239.753906 23.546875 239.433594 23.160156 239.433594 22.167969 L 239.433594 12.550781 L 241.097656 12.550781 C 242.125 12.550781 242.65625 12.800781 242.726562 14.957031 L 242.902344 19.480469 C 243.042969 23.546875 244.210938 24.679688 246.195312 24.679688 C 248.210938 24.679688 248.742188 23.300781 248.742188 21.355469 L 248.742188 20.542969 L 248 20.542969 L 248 21.144531 C 248 22.453125 247.824219 23.371094 247.328125 23.371094 C 246.867188 23.371094 246.832031 23.019531 246.726562 21.390625 L 246.511719 18.28125 C 246.230469 14.109375 245.699219 12.65625 242.621094 12.09375 C 245.558594 11.316406 247.363281 9.15625 247.363281 6.082031 C 247.363281 2.085938 244.210938 0.175781 241.203125 0.175781 L 229.132812 0.175781 L 229.132812 0.8125 L 229.804688 0.953125 C 231.078125 1.238281 231.117188 1.910156 231.117188 4.773438 L 231.117188 18.84375 C 231.117188 21.992188 230.230469 23.511719 228.210938 23.511719 C 226.40625 23.511719 225.414062 22.628906 225.414062 19.199219 L 225.414062 2.476562 C 225.414062 1.484375 225.734375 1.203125 226.511719 1.023438 L 227.46875 0.8125 L 227.46875 0.175781 L 220.070312 0.175781 L 220.070312 0.8125 L 220.847656 1.023438 C 221.558594 1.238281 221.804688 1.519531 221.804688 2.511719 L 221.804688 18.953125 C 221.804688 22.664062 223.964844 24.714844 227.257812 24.714844 C 230.546875 24.714844 232.175781 22.664062 232.175781 18.84375 L 232.175781 3.5 C 232.175781 1.589844 232.566406 0.917969 234.125 0.917969 C 235.363281 0.917969 235.894531 1.34375 235.894531 2.511719 L 235.894531 22.167969 C 235.894531 23.160156 235.574219 23.511719 234.867188 23.691406 L 234.089844 23.902344 Z M 281.59375 2.511719 C 281.59375 1.519531 281.910156 1.203125 282.617188 1.058594 L 283.574219 0.847656 L 283.574219 0.175781 L 276.210938 0.175781 L 276.210938 0.8125 L 276.992188 1.023438 C 277.699219 1.238281 278.015625 1.519531 278.015625 2.511719 L 278.015625 22.3125 C 278.015625 23.265625 277.628906 23.796875 276.53125 23.796875 C 275.257812 23.796875 275.078125 23.371094 274.621094 21.285156 L 270.089844 0.105469 L 268.671875 0.105469 L 264.355469 20.613281 C 263.859375 22.910156 263.609375 23.441406 262.65625 23.726562 L 262.050781 23.902344 L 262.050781 24.539062 L 267.113281 24.539062 L 267.113281 23.902344 L 266.371094 23.761719 C 265.308594 23.546875 265.027344 22.984375 265.558594 20.296875 L 268.105469 7.175781 L 270.902344 21.074219 C 271.328125 23.089844 271.292969 23.476562 269.769531 23.761719 L 269.027344 23.902344 L 269.027344 24.539062 L 287.789062 24.539062 L 287.789062 16.476562 L 287.113281 16.476562 C 286.761719 20.1875 286.019531 23.691406 283.007812 23.691406 L 281.59375 23.691406 Z M 270.546875 17.960938 L 270.546875 17.007812 L 265.769531 17.007812 L 265.628906 17.960938 Z M 250.796875 2.933594 L 250.796875 19.835938 C 250.796875 22.382812 250.796875 23.582031 249.523438 23.796875 L 248.886719 23.902344 L 248.886719 24.539062 L 254.089844 24.539062 L 254.089844 23.902344 C 251.824219 23.582031 251.824219 22.804688 251.824219 20.046875 L 251.824219 3.996094 L 250.972656 3.21875 L 259.644531 24.539062 L 261.132812 24.539062 L 261.132812 4.878906 C 261.132812 1.980469 261.132812 1.34375 262.550781 0.953125 L 263.042969 0.8125 L 263.042969 0.175781 L 257.699219 0.175781 L 257.699219 0.8125 L 258.300781 0.953125 C 260.105469 1.273438 260.105469 1.980469 260.105469 4.667969 L 260.105469 16.972656 L 260.460938 16.867188 L 253.875 0.175781 L 248.8125 0.175781 L 248.8125 0.8125 L 249.308594 0.953125 C 249.875 1.132812 250.195312 1.769531 250.796875 2.933594 M 239.433594 1.023438 L 240.851562 1.023438 C 242.265625 1.023438 243.574219 1.945312 243.574219 6.542969 C 243.574219 11.242188 242.585938 11.703125 240.601562 11.703125 L 239.433594 11.703125 Z M 215.859375 12.128906 C 215.859375 22.347656 215.007812 23.796875 213.167969 23.796875 C 211.328125 23.796875 210.511719 22.347656 210.511719 12.199219 C 210.511719 2.367188 211.398438 0.953125 213.167969 0.953125 C 215.007812 0.953125 215.859375 2.367188 215.859375 12.128906 M 219.71875 12.339844 C 219.71875 5.585938 217.558594 0 213.167969 0 C 208.742188 0 206.65625 5.585938 206.65625 12.339844 C 206.65625 19.128906 208.8125 24.714844 213.167969 24.714844 C 217.664062 24.714844 219.71875 19.128906 219.71875 12.339844 M 204.566406 2.511719 C 204.566406 1.519531 204.816406 1.203125 205.523438 1.023438 L 206.300781 0.8125 L 206.300781 0.175781 L 198.972656 0.175781 L 198.972656 0.8125 L 199.859375 1.023438 C 200.566406 1.203125 200.957031 1.449219 200.957031 2.476562 L 200.957031 19.480469 C 200.957031 21.851562 200.742188 23.761719 198.972656 23.761719 C 197.839844 23.761719 196.992188 22.875 197.027344 22.238281 C 197.132812 21.144531 198.972656 21.214844 199.113281 19.445312 C 199.222656 18.171875 198.40625 17.644531 197.664062 17.539062 C 196.566406 17.394531 195.222656 18.316406 195.183594 20.152344 C 195.148438 22.523438 196.707031 24.679688 199.363281 24.679688 C 202.300781 24.679688 204.566406 22.699219 204.566406 18.914062 Z M 86.335938 2.511719 C 86.335938 1.519531 86.65625 1.203125 87.363281 1.058594 L 88.320312 0.847656 L 88.320312 0.175781 L 80.957031 0.175781 L 80.957031 0.8125 L 81.734375 1.023438 C 82.441406 1.238281 82.761719 1.519531 82.761719 2.511719 L 82.761719 22.3125 C 82.761719 23.265625 82.371094 23.796875 81.273438 23.796875 C 80 23.796875 79.789062 23.371094 79.328125 21.285156 L 74.796875 0.105469 L 73.378906 0.105469 L 69.0625 20.613281 C 68.566406 22.910156 68.320312 23.441406 67.363281 23.726562 L 66.761719 23.902344 L 66.761719 24.539062 L 71.824219 24.539062 L 71.824219 23.902344 L 71.078125 23.761719 C 70.019531 23.546875 69.734375 22.984375 70.265625 20.296875 L 72.8125 7.105469 L 75.609375 21.074219 C 76 23.089844 76 23.476562 74.476562 23.761719 L 73.734375 23.902344 L 73.734375 24.539062 L 92.53125 24.539062 L 92.53125 16.476562 L 91.859375 16.476562 C 91.503906 20.1875 90.761719 23.691406 87.753906 23.691406 L 86.335938 23.691406 Z M 184.882812 1.023438 L 185.664062 1.023438 C 187.859375 1.023438 188.601562 4.527344 188.851562 8.238281 L 189.523438 8.238281 L 189.523438 0.175781 L 176.671875 0.175781 L 176.671875 8.238281 L 177.34375 8.238281 C 177.59375 4.527344 178.335938 1.023438 180.53125 1.023438 L 181.308594 1.023438 L 181.308594 22.167969 C 181.308594 23.160156 180.992188 23.511719 180.285156 23.691406 L 179.363281 23.902344 L 179.363281 24.539062 L 187.007812 24.539062 L 187.007812 23.902344 L 185.910156 23.65625 C 185.238281 23.476562 184.882812 23.265625 184.882812 22.167969 Z M 168.707031 12.304688 L 169.804688 12.339844 C 171.398438 12.375 171.859375 12.976562 172.175781 16.832031 L 172.847656 16.832031 L 172.847656 7 L 172.175781 7 C 171.789062 10.078125 171.363281 11.386719 169.839844 11.421875 L 168.707031 11.457031 L 168.707031 1.023438 L 171.152344 1.023438 C 173.875 1.023438 174.476562 4.457031 174.867188 8.238281 L 175.539062 8.238281 L 175.539062 0.175781 L 163.328125 0.175781 L 163.328125 0.8125 L 164.105469 1.023438 C 164.921875 1.238281 165.132812 1.734375 165.132812 2.546875 L 165.132812 22.167969 C 165.132812 23.160156 164.816406 23.511719 164.105469 23.691406 L 163.328125 23.902344 L 163.328125 24.539062 L 175.894531 24.539062 L 175.894531 16.476562 L 175.222656 16.476562 C 174.796875 20.152344 174.335938 23.691406 171.152344 23.691406 L 168.707031 23.691406 Z M 155.363281 12.304688 L 156.460938 12.339844 C 158.054688 12.375 158.511719 12.976562 158.832031 16.832031 L 159.503906 16.832031 L 159.503906 7 L 158.832031 7 C 158.441406 10.078125 158.019531 11.386719 156.496094 11.421875 L 155.363281 11.457031 L 155.363281 1.023438 L 157.804688 1.023438 C 160.53125 1.023438 161.132812 4.527344 161.523438 8.238281 L 162.195312 8.238281 L 162.195312 0.175781 L 149.628906 0.175781 L 149.628906 0.8125 L 150.761719 1.023438 C 151.574219 1.238281 151.789062 1.734375 151.789062 2.546875 L 151.789062 22.167969 C 151.789062 23.160156 151.46875 23.511719 150.761719 23.691406 L 149.980469 23.902344 L 149.980469 24.539062 L 162.546875 24.539062 L 162.546875 16.476562 L 161.875 16.476562 C 161.453125 20.152344 160.992188 23.691406 157.804688 23.691406 L 155.363281 23.691406 Z M 140.8125 1.023438 L 141.875 1.023438 C 143.292969 1.023438 144.601562 1.945312 144.601562 6.542969 C 144.601562 11.171875 143.609375 11.703125 141.628906 11.703125 L 140.8125 11.703125 Z M 135.46875 24.539062 L 142.621094 24.539062 L 142.621094 23.902344 L 141.839844 23.726562 C 141.132812 23.546875 140.8125 23.160156 140.8125 22.167969 L 140.8125 12.550781 L 142.125 12.550781 C 143.148438 12.550781 143.679688 12.976562 143.753906 14.957031 L 143.929688 19.480469 C 144.070312 23.546875 145.238281 24.679688 147.222656 24.679688 C 149.238281 24.679688 149.769531 23.300781 149.769531 21.355469 L 149.769531 20.542969 L 149.027344 20.542969 L 149.027344 21.144531 C 149.027344 22.453125 148.851562 23.371094 148.355469 23.371094 C 147.894531 23.371094 147.859375 23.019531 147.753906 21.390625 L 147.539062 18.28125 C 147.257812 14 146.691406 12.65625 143.644531 12.09375 C 146.582031 11.316406 148.390625 9.15625 148.390625 6.082031 C 148.390625 2.085938 145.238281 0.175781 142.230469 0.175781 L 135.46875 0.175781 L 135.46875 0.8125 L 136.246094 1.023438 C 136.957031 1.238281 137.273438 1.519531 137.273438 2.511719 L 137.273438 22.167969 C 137.273438 23.160156 136.957031 23.511719 136.246094 23.691406 L 135.46875 23.902344 Z M 130.054688 1.023438 L 130.832031 1.023438 C 133.027344 1.023438 133.769531 4.527344 134.019531 8.238281 L 134.691406 8.238281 L 134.691406 0.175781 L 121.839844 0.175781 L 121.839844 8.238281 L 122.511719 8.238281 C 122.761719 4.527344 123.503906 1.023438 125.699219 1.023438 L 126.476562 1.023438 L 126.476562 22.167969 C 126.476562 23.160156 126.160156 23.511719 125.453125 23.691406 L 124.53125 23.902344 L 124.53125 24.539062 L 132 24.539062 L 132 23.902344 L 131.078125 23.691406 C 130.160156 23.476562 130.054688 22.769531 130.054688 22.167969 Z M 121.875 18.207031 C 121.875 10.960938 113.910156 9.050781 113.910156 3.785156 C 113.910156 2.652344 114.335938 0.953125 116.105469 0.953125 C 118.65625 0.953125 119.609375 4.242188 120.035156 8.238281 L 120.707031 8.238281 L 120.707031 0.175781 L 120.28125 0.175781 C 120.105469 0.953125 119.789062 1.308594 119.328125 1.308594 C 118.511719 1.308594 118.089844 0.0351562 116.140625 0.0351562 C 113.132812 0.0351562 111.078125 2.546875 111.078125 5.832031 C 111.078125 11.808594 119.042969 14.320312 119.042969 19.835938 C 119.042969 22.347656 117.875 23.761719 116.28125 23.761719 C 113.910156 23.761719 112.355469 20.96875 111.929688 16.476562 L 111.257812 16.476562 L 111.257812 24.539062 L 111.679688 24.539062 C 112.035156 23.371094 112.496094 23.265625 112.882812 23.265625 C 113.558594 23.265625 114.265625 24.679688 116.320312 24.679688 C 119.46875 24.679688 121.875 21.957031 121.875 18.207031 M 98.691406 2.511719 C 98.691406 1.519531 99.007812 1.203125 99.714844 1.058594 L 100.671875 0.847656 L 100.671875 0.175781 L 93.308594 0.175781 L 93.308594 0.8125 L 94.089844 1.023438 C 94.796875 1.238281 95.113281 1.519531 95.113281 2.511719 L 95.113281 22.167969 C 95.113281 23.160156 94.796875 23.511719 94.089844 23.691406 L 93.308594 23.902344 L 93.308594 24.539062 L 104.886719 24.539062 L 104.886719 16.476562 L 104.210938 16.476562 C 103.859375 20.1875 103.113281 23.691406 100.105469 23.691406 L 98.691406 23.691406 Z M 75.257812 17.960938 L 75.257812 17.007812 L 70.476562 17.007812 L 70.335938 17.960938 Z M 54.796875 24.609375 L 56.246094 24.609375 L 59.539062 7.214844 L 59.042969 7.214844 L 62.65625 24.609375 L 63.929688 24.609375 L 68.246094 4.101562 C 68.707031 1.945312 68.957031 1.203125 69.804688 0.988281 L 70.476562 0.8125 L 70.476562 0.175781 L 65.488281 0.175781 L 65.488281 0.8125 L 66.230469 0.953125 C 67.292969 1.167969 67.539062 1.804688 67.042969 4.417969 L 64.246094 18.171875 L 64.671875 18.171875 L 61.839844 3.675781 C 61.558594 2.296875 61.378906 1.167969 62.550781 0.953125 L 63.328125 0.8125 L 63.328125 0.175781 L 56.496094 0.175781 L 56.496094 0.8125 L 56.957031 0.917969 C 57.664062 1.097656 57.769531 1.519531 58.054688 2.863281 L 59.148438 8.132812 L 58.9375 4.949219 L 56.496094 17.820312 L 56.8125 17.820312 L 53.945312 3.675781 C 53.628906 2.226562 53.523438 1.132812 54.65625 0.917969 L 55.1875 0.8125 L 55.1875 0.175781 L 48.210938 0.175781 L 48.210938 0.8125 L 48.886719 0.988281 C 49.523438 1.167969 49.875 1.484375 50.300781 3.429688 Z M 35.894531 12.304688 L 36.992188 12.339844 C 38.582031 12.375 39.042969 12.976562 39.363281 16.832031 L 40.035156 16.832031 L 40.035156 7 L 39.363281 7 C 38.972656 10.078125 38.546875 11.386719 37.027344 11.421875 L 35.894531 11.457031 L 35.894531 1.023438 L 38.335938 1.023438 C 41.0625 1.023438 41.664062 4.527344 42.054688 8.238281 L 42.726562 8.238281 L 42.726562 0.175781 L 30.511719 0.175781 L 30.511719 0.8125 L 31.292969 1.023438 C 32.105469 1.238281 32.320312 1.734375 32.320312 2.546875 L 32.320312 22.167969 C 32.320312 23.160156 32 23.511719 31.292969 23.691406 L 30.511719 23.902344 L 30.511719 24.539062 L 43.078125 24.539062 L 43.078125 16.476562 L 42.40625 16.476562 C 41.980469 20.152344 41.523438 23.691406 38.335938 23.691406 L 35.894531 23.691406 Z M 13.628906 24.539062 L 20.882812 24.539062 L 20.882812 23.902344 L 20.070312 23.726562 C 19.433594 23.582031 19.007812 23.160156 19.007812 22.167969 L 19.007812 12.515625 L 24.355469 12.515625 L 24.355469 22.167969 C 24.355469 23.160156 23.929688 23.582031 23.292969 23.726562 L 22.476562 23.902344 L 22.476562 24.539062 L 29.734375 24.539062 L 29.734375 23.902344 L 28.957031 23.691406 C 28.246094 23.511719 27.929688 23.125 27.929688 22.132812 L 27.929688 2.511719 C 27.929688 1.519531 28.246094 1.203125 28.957031 1.023438 L 29.734375 0.8125 L 29.734375 0.175781 L 22.476562 0.175781 L 22.476562 0.8125 L 23.292969 1.023438 C 23.894531 1.203125 24.355469 1.449219 24.355469 2.476562 L 24.355469 11.5625 L 19.007812 11.5625 L 19.007812 2.476562 C 19.007812 1.484375 19.398438 1.203125 20.070312 1.023438 L 20.882812 0.8125 L 20.882812 0.175781 L 13.628906 0.175781 L 13.628906 0.8125 L 14.40625 1.023438 C 15.113281 1.238281 15.433594 1.519531 15.433594 2.511719 L 15.433594 22.167969 C 15.433594 23.160156 15.113281 23.511719 14.40625 23.691406 L 13.628906 23.902344 Z M 8.210938 1.023438 L 8.992188 1.023438 C 11.1875 1.023438 11.929688 4.527344 12.175781 8.238281 L 12.847656 8.238281 L 12.847656 0.175781 L 0 0.175781 L 0 8.238281 L 0.671875 8.238281 C 0.921875 4.527344 1.664062 1.023438 3.859375 1.023438 L 4.636719 1.023438 L 4.636719 22.167969 C 4.636719 23.160156 4.320312 23.511719 3.609375 23.691406 L 2.691406 23.902344 L 2.691406 24.539062 L 10.335938 24.539062 L 10.335938 23.902344 L 9.238281 23.65625 C 8.566406 23.476562 8.210938 23.265625 8.210938 22.167969 Z M 8.210938 1.023438 "/>
</g>
</svg>
