<?xml version="1.0" encoding="UTF-8"?>
<svg xmlns="http://www.w3.org/2000/svg" xmlns:xlink="http://www.w3.org/1999/xlink" width="35pt" height="25pt" viewBox="0 0 35 25" version="1.1">
<g id="surface1">
<path style=" stroke:none;fill-rule:nonzero;fill:rgb(10.980392%,10.980392%,12.941176%);fill-opacity:1;" d="M 34.8125 12.84375 C 34.710938 12.84375 34.625 12.925781 34.625 13.042969 C 34.625 13.15625 34.710938 13.242188 34.8125 13.242188 C 34.914062 13.242188 35 13.15625 35 13.042969 C 35 12.925781 34.914062 12.84375 34.8125 12.84375 M 28.058594 13.230469 L 28.914062 13.230469 L 28.914062 13.152344 L 28.824219 13.132812 C 28.738281 13.109375 28.699219 13.0625 28.699219 12.945312 L 28.699219 11.789062 L 28.898438 11.789062 C 29.023438 11.789062 29.085938 11.820312 29.09375 12.078125 L 29.113281 12.621094 C 29.132812 13.109375 29.273438 13.246094 29.507812 13.246094 C 29.75 13.246094 29.816406 13.082031 29.816406 12.847656 L 29.816406 12.75 L 29.726562 12.75 L 29.726562 12.820312 C 29.726562 12.976562 29.703125 13.089844 29.644531 13.089844 C 29.589844 13.089844 29.585938 13.046875 29.574219 12.851562 L 29.546875 12.476562 C 29.515625 11.976562 29.449219 11.804688 29.082031 11.734375 C 29.433594 11.640625 29.648438 11.382812 29.648438 11.015625 C 29.648438 10.535156 29.273438 10.304688 28.910156 10.304688 L 27.464844 10.304688 L 27.464844 10.382812 L 27.546875 10.398438 C 27.699219 10.433594 27.703125 10.511719 27.703125 10.855469 L 27.703125 12.546875 C 27.703125 12.921875 27.597656 13.105469 27.355469 13.105469 C 27.136719 13.105469 27.019531 13 27.019531 12.589844 L 27.019531 10.582031 C 27.019531 10.460938 27.058594 10.429688 27.152344 10.40625 L 27.265625 10.382812 L 27.265625 10.304688 L 26.378906 10.304688 L 26.378906 10.382812 L 26.472656 10.40625 C 26.554688 10.433594 26.585938 10.464844 26.585938 10.585938 L 26.585938 12.558594 C 26.585938 13.003906 26.84375 13.25 27.238281 13.25 C 27.632812 13.25 27.828125 13.003906 27.828125 12.546875 L 27.828125 10.703125 C 27.828125 10.476562 27.875 10.394531 28.0625 10.394531 C 28.210938 10.394531 28.273438 10.445312 28.273438 10.585938 L 28.273438 12.945312 C 28.273438 13.0625 28.238281 13.105469 28.152344 13.128906 L 28.058594 13.152344 Z M 33.753906 10.585938 C 33.753906 10.464844 33.789062 10.429688 33.875 10.410156 L 33.988281 10.386719 L 33.988281 10.304688 L 33.109375 10.304688 L 33.109375 10.382812 L 33.199219 10.40625 C 33.285156 10.433594 33.324219 10.464844 33.324219 10.585938 L 33.324219 12.960938 C 33.324219 13.074219 33.277344 13.140625 33.144531 13.140625 C 32.992188 13.140625 32.972656 13.089844 32.917969 12.839844 L 32.375 10.296875 L 32.203125 10.296875 L 31.6875 12.757812 C 31.625 13.035156 31.597656 13.097656 31.484375 13.132812 L 31.410156 13.152344 L 31.410156 13.230469 L 32.015625 13.230469 L 32.015625 13.152344 L 31.929688 13.136719 C 31.800781 13.109375 31.765625 13.042969 31.832031 12.71875 L 32.136719 11.144531 L 32.472656 12.8125 C 32.523438 13.054688 32.519531 13.101562 32.335938 13.136719 L 32.246094 13.152344 L 32.246094 13.230469 L 34.496094 13.230469 L 34.496094 12.261719 L 34.414062 12.261719 C 34.371094 12.707031 34.28125 13.128906 33.921875 13.128906 L 33.753906 13.128906 Z M 32.429688 12.441406 L 32.429688 12.324219 L 31.855469 12.324219 L 31.839844 12.441406 Z M 30.0625 10.636719 L 30.0625 12.664062 C 30.0625 12.96875 30.0625 13.113281 29.910156 13.140625 L 29.832031 13.152344 L 29.832031 13.230469 L 30.457031 13.230469 L 30.457031 13.152344 C 30.183594 13.113281 30.183594 13.019531 30.183594 12.691406 L 30.183594 10.761719 L 30.082031 10.671875 L 31.121094 13.230469 L 31.300781 13.230469 L 31.300781 10.871094 C 31.300781 10.523438 31.300781 10.445312 31.46875 10.398438 L 31.527344 10.382812 L 31.527344 10.304688 L 30.886719 10.304688 L 30.886719 10.382812 L 30.960938 10.398438 C 31.175781 10.4375 31.175781 10.523438 31.175781 10.84375 L 31.175781 12.320312 L 31.21875 12.308594 L 30.429688 10.304688 L 29.824219 10.304688 L 29.824219 10.382812 L 29.882812 10.398438 C 29.949219 10.421875 29.988281 10.496094 30.0625 10.636719 M 28.699219 10.40625 L 28.867188 10.40625 C 29.039062 10.40625 29.195312 10.515625 29.195312 11.070312 C 29.195312 11.632812 29.078125 11.6875 28.839844 11.6875 L 28.699219 11.6875 Z M 25.875 11.738281 C 25.875 12.964844 25.773438 13.140625 25.550781 13.140625 C 25.332031 13.140625 25.234375 12.964844 25.234375 11.746094 C 25.234375 10.570312 25.339844 10.398438 25.550781 10.398438 C 25.773438 10.398438 25.875 10.570312 25.875 11.738281 M 26.335938 11.765625 C 26.335938 10.953125 26.078125 10.285156 25.550781 10.285156 C 25.019531 10.285156 24.769531 10.953125 24.769531 11.765625 C 24.769531 12.578125 25.027344 13.25 25.550781 13.25 C 26.089844 13.25 26.335938 12.578125 26.335938 11.765625 M 24.519531 10.585938 C 24.519531 10.464844 24.550781 10.429688 24.632812 10.40625 L 24.726562 10.382812 L 24.726562 10.304688 L 23.847656 10.304688 L 23.847656 10.382812 L 23.957031 10.40625 C 24.039062 10.429688 24.085938 10.457031 24.085938 10.582031 L 24.085938 12.621094 C 24.085938 12.90625 24.0625 13.136719 23.847656 13.136719 C 23.714844 13.136719 23.613281 13.03125 23.617188 12.953125 C 23.628906 12.820312 23.847656 12.828125 23.867188 12.617188 C 23.878906 12.464844 23.78125 12.402344 23.691406 12.390625 C 23.5625 12.371094 23.398438 12.480469 23.394531 12.703125 C 23.390625 12.988281 23.578125 13.246094 23.894531 13.246094 C 24.25 13.246094 24.519531 13.007812 24.519531 12.554688 Z M 10.347656 10.585938 C 10.347656 10.464844 10.386719 10.429688 10.472656 10.410156 L 10.585938 10.386719 L 10.585938 10.304688 L 9.703125 10.304688 L 9.703125 10.382812 L 9.796875 10.40625 C 9.882812 10.433594 9.921875 10.464844 9.921875 10.585938 L 9.921875 12.960938 C 9.921875 13.074219 9.875 13.140625 9.742188 13.140625 C 9.589844 13.140625 9.5625 13.089844 9.507812 12.839844 L 8.964844 10.296875 L 8.796875 10.296875 L 8.277344 12.757812 C 8.21875 13.035156 8.1875 13.097656 8.074219 13.132812 L 8.003906 13.152344 L 8.003906 13.230469 L 8.609375 13.230469 L 8.609375 13.152344 L 8.519531 13.136719 C 8.390625 13.109375 8.359375 13.042969 8.421875 12.71875 L 8.726562 11.136719 L 9.0625 12.8125 C 9.109375 13.054688 9.109375 13.101562 8.925781 13.136719 L 8.839844 13.152344 L 8.839844 13.230469 L 11.089844 13.230469 L 11.089844 12.261719 L 11.011719 12.261719 C 10.96875 12.707031 10.878906 13.128906 10.519531 13.128906 L 10.347656 13.128906 Z M 22.160156 10.40625 L 22.253906 10.40625 C 22.515625 10.40625 22.605469 10.828125 22.636719 11.273438 L 22.714844 11.273438 L 22.714844 10.304688 L 21.175781 10.304688 L 21.175781 11.273438 L 21.257812 11.273438 C 21.285156 10.828125 21.375 10.40625 21.640625 10.40625 L 21.730469 10.40625 L 21.730469 12.945312 C 21.730469 13.0625 21.695312 13.105469 21.609375 13.128906 L 21.5 13.152344 L 21.5 13.230469 L 22.414062 13.230469 L 22.414062 13.152344 L 22.285156 13.121094 C 22.203125 13.101562 22.160156 13.074219 22.160156 12.945312 Z M 20.222656 11.761719 L 20.351562 11.765625 C 20.542969 11.769531 20.597656 11.839844 20.636719 12.304688 L 20.71875 12.304688 L 20.71875 11.125 L 20.636719 11.125 C 20.589844 11.492188 20.539062 11.652344 20.359375 11.65625 L 20.222656 11.660156 L 20.222656 10.40625 L 20.515625 10.40625 C 20.839844 10.40625 20.914062 10.820312 20.960938 11.273438 L 21.039062 11.273438 L 21.039062 10.304688 L 19.578125 10.304688 L 19.578125 10.382812 L 19.671875 10.40625 C 19.769531 10.433594 19.792969 10.492188 19.792969 10.589844 L 19.792969 12.945312 C 19.792969 13.0625 19.753906 13.105469 19.671875 13.128906 L 19.578125 13.152344 L 19.578125 13.230469 L 21.082031 13.230469 L 21.082031 12.261719 L 21.003906 12.261719 C 20.953125 12.703125 20.894531 13.128906 20.515625 13.128906 L 20.222656 13.128906 Z M 18.621094 11.761719 L 18.753906 11.765625 C 18.945312 11.769531 19 11.839844 19.039062 12.304688 L 19.117188 12.304688 L 19.117188 11.125 L 19.039062 11.125 C 18.992188 11.492188 18.941406 11.652344 18.757812 11.65625 L 18.621094 11.660156 L 18.621094 10.40625 L 18.914062 10.40625 C 19.242188 10.40625 19.3125 10.828125 19.359375 11.273438 L 19.441406 11.273438 L 19.441406 10.304688 L 17.933594 10.304688 L 17.933594 10.382812 L 18.070312 10.40625 C 18.167969 10.433594 18.195312 10.492188 18.195312 10.589844 L 18.195312 12.945312 C 18.195312 13.0625 18.15625 13.105469 18.070312 13.128906 L 17.976562 13.152344 L 17.976562 13.230469 L 19.484375 13.230469 L 19.484375 12.261719 L 19.402344 12.261719 C 19.351562 12.703125 19.296875 13.128906 18.914062 13.128906 L 18.621094 13.128906 Z M 16.878906 10.40625 L 17.003906 10.40625 C 17.175781 10.40625 17.332031 10.515625 17.332031 11.070312 C 17.332031 11.625 17.214844 11.6875 16.976562 11.6875 L 16.878906 11.6875 Z M 16.238281 13.230469 L 17.09375 13.230469 L 17.09375 13.152344 L 17 13.132812 C 16.917969 13.109375 16.878906 13.0625 16.878906 12.945312 L 16.878906 11.789062 L 17.035156 11.789062 C 17.160156 11.789062 17.222656 11.839844 17.230469 12.078125 L 17.25 12.621094 C 17.269531 13.109375 17.410156 13.246094 17.644531 13.246094 C 17.886719 13.246094 17.953125 13.082031 17.953125 12.847656 L 17.953125 12.75 L 17.863281 12.75 L 17.863281 12.820312 C 17.863281 12.976562 17.839844 13.089844 17.78125 13.089844 C 17.726562 13.089844 17.722656 13.046875 17.710938 12.851562 L 17.683594 12.476562 C 17.652344 11.964844 17.582031 11.804688 17.21875 11.734375 C 17.570312 11.640625 17.785156 11.382812 17.785156 11.015625 C 17.785156 10.535156 17.410156 10.304688 17.046875 10.304688 L 16.238281 10.304688 L 16.238281 10.382812 L 16.332031 10.40625 C 16.414062 10.433594 16.453125 10.464844 16.453125 10.585938 L 16.453125 12.945312 C 16.453125 13.0625 16.414062 13.105469 16.332031 13.128906 L 16.238281 13.152344 Z M 15.589844 10.40625 L 15.683594 10.40625 C 15.945312 10.40625 16.035156 10.828125 16.0625 11.273438 L 16.144531 11.273438 L 16.144531 10.304688 L 14.605469 10.304688 L 14.605469 11.273438 L 14.683594 11.273438 C 14.714844 10.828125 14.804688 10.40625 15.066406 10.40625 L 15.160156 10.40625 L 15.160156 12.945312 C 15.160156 13.0625 15.121094 13.105469 15.035156 13.128906 L 14.925781 13.152344 L 14.925781 13.230469 L 15.820312 13.230469 L 15.820312 13.152344 L 15.710938 13.128906 C 15.601562 13.101562 15.589844 13.015625 15.589844 12.945312 Z M 14.609375 12.46875 C 14.609375 11.597656 13.652344 11.371094 13.652344 10.738281 C 13.652344 10.601562 13.703125 10.398438 13.917969 10.398438 C 14.222656 10.398438 14.335938 10.792969 14.386719 11.273438 L 14.46875 11.273438 L 14.46875 10.304688 L 14.417969 10.304688 C 14.394531 10.398438 14.359375 10.441406 14.304688 10.441406 C 14.207031 10.441406 14.15625 10.289062 13.921875 10.289062 C 13.558594 10.289062 13.3125 10.589844 13.3125 10.984375 C 13.3125 11.703125 14.269531 12.003906 14.269531 12.664062 C 14.269531 12.964844 14.128906 13.136719 13.9375 13.136719 C 13.652344 13.136719 13.46875 12.800781 13.417969 12.261719 L 13.335938 12.261719 L 13.335938 13.230469 L 13.386719 13.230469 C 13.429688 13.089844 13.484375 13.074219 13.53125 13.074219 C 13.613281 13.074219 13.695312 13.246094 13.941406 13.246094 C 14.320312 13.246094 14.609375 12.917969 14.609375 12.46875 M 11.828125 10.585938 C 11.828125 10.464844 11.867188 10.429688 11.953125 10.410156 L 12.066406 10.386719 L 12.066406 10.304688 L 11.183594 10.304688 L 11.183594 10.382812 L 11.277344 10.40625 C 11.363281 10.433594 11.402344 10.464844 11.402344 10.585938 L 11.402344 12.945312 C 11.402344 13.0625 11.363281 13.105469 11.277344 13.128906 L 11.183594 13.152344 L 11.183594 13.230469 L 12.570312 13.230469 L 12.570312 12.261719 L 12.492188 12.261719 C 12.449219 12.707031 12.359375 13.128906 12 13.128906 L 11.828125 13.128906 Z M 9.019531 12.441406 L 9.019531 12.324219 L 8.449219 12.324219 L 8.429688 12.441406 Z M 6.566406 13.238281 L 6.742188 13.238281 L 7.136719 11.148438 L 7.078125 11.148438 L 7.511719 13.238281 L 7.664062 13.238281 L 8.179688 10.777344 C 8.234375 10.515625 8.265625 10.429688 8.367188 10.402344 L 8.449219 10.382812 L 8.449219 10.304688 L 7.847656 10.304688 L 7.847656 10.382812 L 7.9375 10.398438 C 8.066406 10.425781 8.09375 10.5 8.035156 10.816406 L 7.699219 12.464844 L 7.75 12.464844 L 7.414062 10.726562 C 7.378906 10.558594 7.355469 10.425781 7.496094 10.398438 L 7.589844 10.382812 L 7.589844 10.304688 L 6.773438 10.304688 L 6.773438 10.382812 L 6.828125 10.394531 C 6.910156 10.414062 6.925781 10.464844 6.957031 10.628906 L 7.089844 11.261719 L 7.066406 10.878906 L 6.773438 12.421875 L 6.808594 12.421875 L 6.464844 10.726562 C 6.429688 10.550781 6.414062 10.421875 6.550781 10.394531 L 6.613281 10.382812 L 6.613281 10.304688 L 5.777344 10.304688 L 5.777344 10.382812 L 5.859375 10.402344 C 5.9375 10.425781 5.976562 10.460938 6.027344 10.695312 Z M 4.300781 11.761719 L 4.433594 11.765625 C 4.625 11.769531 4.679688 11.839844 4.71875 12.304688 L 4.796875 12.304688 L 4.796875 11.125 L 4.71875 11.125 C 4.671875 11.492188 4.621094 11.652344 4.4375 11.65625 L 4.300781 11.660156 L 4.300781 10.40625 L 4.59375 10.40625 C 4.921875 10.40625 4.992188 10.828125 5.039062 11.273438 L 5.121094 11.273438 L 5.121094 10.304688 L 3.65625 10.304688 L 3.65625 10.382812 L 3.75 10.40625 C 3.847656 10.433594 3.875 10.492188 3.875 10.589844 L 3.875 12.945312 C 3.875 13.0625 3.835938 13.105469 3.75 13.128906 L 3.65625 13.152344 L 3.65625 13.230469 L 5.164062 13.230469 L 5.164062 12.261719 L 5.082031 12.261719 C 5.03125 12.703125 4.976562 13.128906 4.59375 13.128906 L 4.300781 13.128906 Z M 1.632812 13.230469 L 2.503906 13.230469 L 2.503906 13.152344 L 2.40625 13.132812 C 2.328125 13.113281 2.277344 13.0625 2.277344 12.945312 L 2.277344 11.785156 L 2.917969 11.785156 L 2.917969 12.945312 C 2.917969 13.0625 2.867188 13.113281 2.792969 13.132812 L 2.695312 13.152344 L 2.695312 13.230469 L 3.5625 13.230469 L 3.5625 13.152344 L 3.472656 13.128906 C 3.386719 13.105469 3.347656 13.058594 3.347656 12.941406 L 3.347656 10.585938 C 3.347656 10.464844 3.386719 10.429688 3.472656 10.40625 L 3.5625 10.382812 L 3.5625 10.304688 L 2.695312 10.304688 L 2.695312 10.382812 L 2.792969 10.40625 C 2.863281 10.429688 2.917969 10.457031 2.917969 10.582031 L 2.917969 11.671875 L 2.277344 11.671875 L 2.277344 10.582031 C 2.277344 10.460938 2.324219 10.429688 2.40625 10.40625 L 2.503906 10.382812 L 2.503906 10.304688 L 1.632812 10.304688 L 1.632812 10.382812 L 1.726562 10.40625 C 1.8125 10.433594 1.851562 10.464844 1.851562 10.585938 L 1.851562 12.945312 C 1.851562 13.0625 1.8125 13.105469 1.726562 13.128906 L 1.632812 13.152344 Z M 0.984375 10.40625 L 1.078125 10.40625 C 1.339844 10.40625 1.429688 10.828125 1.460938 11.273438 L 1.539062 11.273438 L 1.539062 10.304688 L 0 10.304688 L 0 11.273438 L 0.0820312 11.273438 C 0.109375 10.828125 0.199219 10.40625 0.460938 10.40625 L 0.554688 10.40625 L 0.554688 12.945312 C 0.554688 13.0625 0.519531 13.105469 0.433594 13.128906 L 0.324219 13.152344 L 0.324219 13.230469 L 1.238281 13.230469 L 1.238281 13.152344 L 1.105469 13.121094 C 1.027344 13.101562 0.984375 13.074219 0.984375 12.945312 Z M 0.984375 10.40625 "/>
</g>
</svg>
