<?xml version="1.0" encoding="UTF-8"?>
<svg xmlns="http://www.w3.org/2000/svg" xmlns:xlink="http://www.w3.org/1999/xlink" width="56pt" height="25pt" viewBox="0 0 56 25" version="1.1">
<g id="surface1">
<path style=" stroke:none;fill-rule:nonzero;fill:rgb(13.72549%,12.156863%,12.54902%);fill-opacity:1;" d="M 2.335938 18.304688 C 1.851562 18.597656 0.875 19.238281 0.875 20.410156 C 0.875 21.460938 1.769531 22.132812 2.800781 22.128906 C 3.78125 22.128906 4.378906 21.488281 4.617188 21.132812 Z M 3.679688 16.320312 C 3.679688 15.820312 3.273438 15.386719 2.671875 15.382812 C 2.097656 15.378906 1.660156 15.757812 1.660156 16.308594 C 1.660156 16.902344 2.214844 17.527344 2.421875 17.78125 C 2.847656 17.515625 3.675781 17.074219 3.679688 16.320312 M 5.5 22.25 L 4.878906 21.445312 C 4.550781 21.882812 3.855469 22.503906 2.785156 22.503906 C 1.414062 22.503906 0.453125 21.554688 0.457031 20.394531 C 0.457031 19.222656 1.21875 18.566406 2.101562 18 C 1.789062 17.589844 1.242188 16.996094 1.242188 16.269531 C 1.242188 15.535156 1.894531 15.007812 2.6875 15.011719 C 3.566406 15.011719 4.089844 15.675781 4.089844 16.316406 C 4.089844 17.207031 3.300781 17.660156 2.648438 18.074219 L 4.832031 20.773438 C 5.054688 20.371094 5.175781 19.671875 5.121094 19.25 L 5.515625 19.25 C 5.574219 19.832031 5.390625 20.613281 5.109375 21.097656 L 6.046875 22.25 Z M 5.5 22.25 "/>
<path style=" stroke:none;fill-rule:nonzero;fill:rgb(13.72549%,12.156863%,12.54902%);fill-opacity:1;" d="M 4.261719 4.664062 C 4.191406 4.003906 3.769531 3.375 3.070312 3.375 C 2.273438 3.375 1.828125 3.851562 1.828125 4.652344 C 1.828125 6.339844 4.855469 5.835938 4.855469 8.273438 C 4.855469 9.675781 3.703125 10.40625 2.410156 10.40625 C 1.84375 10.40625 1.296875 10.199219 0.804688 9.945312 C 0.753906 9.429688 0.683594 8.917969 0.632812 8.402344 L 0.917969 8.339844 C 1.035156 9.203125 1.519531 9.957031 2.480469 9.957031 C 3.167969 9.957031 3.722656 9.523438 3.722656 8.800781 C 3.722656 7.003906 0.753906 7.558594 0.757812 5.109375 C 0.757812 3.789062 1.6875 3.007812 2.992188 3.007812 C 3.273438 3.007812 4.132812 3.121094 4.445312 3.160156 C 4.445312 3.640625 4.484375 4.128906 4.546875 4.613281 Z M 4.261719 4.664062 "/>
<path style=" stroke:none;fill-rule:nonzero;fill:rgb(13.72549%,12.156863%,12.54902%);fill-opacity:1;" d="M 6.515625 3.671875 C 5.757812 3.671875 5.726562 3.855469 5.574219 4.59375 L 5.273438 4.59375 C 5.3125 4.3125 5.363281 4.027344 5.394531 3.730469 C 5.433594 3.445312 5.457031 3.164062 5.457031 2.867188 L 5.699219 2.867188 C 5.777344 3.171875 6.03125 3.164062 6.304688 3.164062 L 11.515625 3.167969 C 11.789062 3.167969 12.039062 3.15625 12.058594 2.851562 L 12.300781 2.894531 C 12.261719 3.167969 12.222656 3.441406 12.191406 3.71875 C 12.171875 3.992188 12.171875 4.265625 12.171875 4.539062 L 11.867188 4.652344 C 11.847656 4.277344 11.796875 3.675781 11.121094 3.675781 L 9.464844 3.675781 L 9.460938 9.082031 C 9.460938 9.863281 9.8125 9.957031 10.296875 9.957031 L 10.488281 9.957031 L 10.488281 10.261719 C 10.097656 10.261719 9.390625 10.21875 8.84375 10.21875 C 8.238281 10.21875 7.53125 10.257812 7.136719 10.257812 L 7.136719 9.953125 L 7.328125 9.953125 C 7.882812 9.953125 8.167969 9.902344 8.167969 9.101562 L 8.171875 3.675781 L 6.515625 3.675781 Z M 6.515625 3.671875 "/>
<path style=" stroke:none;fill-rule:nonzero;fill:rgb(13.72549%,12.156863%,12.54902%);fill-opacity:1;" d="M 14.148438 4.308594 L 14.128906 4.308594 L 13.1875 7.183594 L 15.078125 7.183594 Z M 12.671875 8.808594 C 12.570312 9.15625 12.449219 9.417969 12.449219 9.601562 C 12.449219 9.90625 12.871094 9.957031 13.207031 9.957031 L 13.316406 9.957031 L 13.316406 10.261719 C 12.914062 10.242188 12.5 10.222656 12.09375 10.222656 C 11.730469 10.222656 11.367188 10.242188 11.003906 10.261719 L 11.003906 9.957031 L 11.066406 9.957031 C 11.460938 9.957031 11.792969 9.722656 11.945312 9.296875 L 13.566406 4.632812 C 13.695312 4.257812 13.878906 3.75 13.9375 3.375 C 14.261719 3.261719 14.667969 3.058594 14.859375 2.9375 C 14.890625 2.925781 14.910156 2.917969 14.9375 2.917969 C 14.972656 2.917969 14.992188 2.917969 15.011719 2.949219 C 15.042969 3.03125 15.070312 3.121094 15.101562 3.203125 L 16.953125 8.519531 C 17.074219 8.875 17.195312 9.25 17.328125 9.554688 C 17.449219 9.839844 17.660156 9.960938 17.992188 9.960938 L 18.054688 9.960938 L 18.054688 10.265625 C 17.601562 10.246094 17.144531 10.226562 16.660156 10.226562 C 16.164062 10.226562 15.660156 10.246094 15.144531 10.265625 L 15.144531 9.960938 L 15.257812 9.960938 C 15.488281 9.960938 15.882812 9.917969 15.882812 9.664062 C 15.882812 9.53125 15.792969 9.257812 15.679688 8.933594 L 15.289062 7.753906 L 12.996094 7.753906 L 12.671875 8.8125 Z M 12.671875 8.808594 "/>
<path style=" stroke:none;fill-rule:nonzero;fill:rgb(13.72549%,12.156863%,12.54902%);fill-opacity:1;" d="M 25.011719 8.269531 L 25.03125 8.25 L 25.03125 4.441406 C 25.03125 3.605469 24.457031 3.484375 24.15625 3.484375 L 23.933594 3.484375 L 23.933594 3.179688 C 24.40625 3.179688 24.871094 3.222656 25.34375 3.222656 C 25.757812 3.222656 26.171875 3.179688 26.585938 3.183594 L 26.585938 3.488281 L 26.4375 3.488281 C 26.011719 3.488281 25.535156 3.566406 25.535156 4.777344 L 25.53125 9.402344 C 25.53125 9.757812 25.539062 10.113281 25.589844 10.425781 L 25.207031 10.425781 L 20.011719 4.589844 L 20.007812 8.777344 C 20.007812 9.660156 20.179688 9.964844 20.957031 9.964844 L 21.128906 9.964844 L 21.128906 10.269531 C 20.695312 10.269531 20.257812 10.230469 19.824219 10.226562 C 19.371094 10.226562 18.90625 10.269531 18.453125 10.269531 L 18.453125 9.964844 L 18.59375 9.964844 C 19.289062 9.964844 19.503906 9.484375 19.503906 8.671875 L 19.507812 4.394531 C 19.507812 3.824219 19.042969 3.480469 18.589844 3.480469 L 18.457031 3.480469 L 18.457031 3.175781 C 18.839844 3.175781 19.234375 3.214844 19.617188 3.214844 C 19.921875 3.214844 20.214844 3.175781 20.519531 3.175781 L 25.007812 8.273438 Z M 25.011719 8.269531 "/>
<path style=" stroke:none;fill-rule:nonzero;fill:rgb(13.72549%,12.156863%,12.54902%);fill-opacity:1;" d="M 29.203125 9.109375 C 29.203125 9.820312 29.523438 9.910156 30.25 9.914062 C 31.96875 9.917969 32.859375 8.472656 32.859375 6.90625 C 32.859375 4.222656 31.511719 3.550781 29.894531 3.550781 C 29.660156 3.550781 29.429688 3.582031 29.207031 3.601562 Z M 27.019531 9.96875 L 27.160156 9.96875 C 27.523438 9.96875 27.910156 9.917969 27.910156 9.390625 L 27.914062 4.066406 C 27.914062 3.539062 27.53125 3.488281 27.167969 3.488281 L 27.023438 3.488281 L 27.023438 3.179688 C 27.328125 3.179688 27.992188 3.222656 28.640625 3.222656 C 29.289062 3.222656 29.832031 3.183594 30.265625 3.183594 C 32.75 3.1875 34.273438 4.589844 34.273438 6.714844 C 34.273438 8.746094 32.574219 10.402344 30.523438 10.277344 C 30.078125 10.257812 29.371094 10.234375 28.683594 10.234375 C 27.996094 10.234375 27.28125 10.273438 27.019531 10.273438 Z M 27.019531 9.96875 "/>
<path style=" stroke:none;fill-rule:nonzero;fill:rgb(13.72549%,12.156863%,12.54902%);fill-opacity:1;" d="M 36.941406 4.328125 L 36.921875 4.328125 L 35.980469 7.203125 L 37.871094 7.203125 L 36.945312 4.328125 Z M 35.464844 8.828125 C 35.363281 9.175781 35.242188 9.441406 35.242188 9.621094 C 35.242188 9.925781 35.664062 9.976562 36 9.980469 L 36.109375 9.980469 L 36.109375 10.285156 C 35.707031 10.261719 35.292969 10.242188 34.886719 10.242188 C 34.523438 10.242188 34.160156 10.261719 33.796875 10.28125 L 33.796875 9.976562 L 33.859375 9.976562 C 34.253906 9.976562 34.585938 9.742188 34.738281 9.316406 L 36.359375 4.65625 C 36.488281 4.277344 36.671875 3.769531 36.734375 3.394531 C 37.054688 3.28125 37.460938 3.078125 37.652344 2.957031 C 37.683594 2.949219 37.703125 2.9375 37.734375 2.9375 C 37.765625 2.9375 37.78125 2.9375 37.804688 2.96875 C 37.835938 3.050781 37.863281 3.140625 37.894531 3.222656 L 39.746094 8.539062 C 39.867188 8.894531 39.988281 9.269531 40.121094 9.578125 C 40.242188 9.859375 40.453125 9.984375 40.785156 9.984375 L 40.847656 9.984375 L 40.847656 10.289062 C 40.390625 10.265625 39.9375 10.246094 39.453125 10.246094 C 38.957031 10.246094 38.453125 10.265625 37.9375 10.285156 L 37.9375 9.980469 L 38.050781 9.980469 C 38.28125 9.980469 38.675781 9.941406 38.675781 9.6875 C 38.675781 9.554688 38.585938 9.277344 38.472656 8.953125 L 38.082031 7.773438 L 35.789062 7.769531 Z M 35.464844 8.828125 "/>
<path style=" stroke:none;fill-rule:nonzero;fill:rgb(13.72549%,12.156863%,12.54902%);fill-opacity:1;" d="M 43.402344 6.632812 L 43.898438 6.632812 C 44.910156 6.632812 45.453125 6.246094 45.453125 5.046875 C 45.453125 4.144531 44.878906 3.5625 43.980469 3.5625 C 43.679688 3.5625 43.546875 3.59375 43.40625 3.601562 L 43.40625 6.632812 Z M 42.113281 4.273438 C 42.113281 3.53125 41.710938 3.5 41.398438 3.5 L 41.214844 3.5 L 41.214844 3.195312 C 41.539062 3.195312 42.164062 3.238281 42.78125 3.238281 C 43.386719 3.238281 43.871094 3.199219 44.40625 3.199219 C 45.679688 3.199219 46.808594 3.546875 46.808594 4.988281 C 46.808594 5.902344 46.203125 6.460938 45.402344 6.777344 L 47.128906 9.378906 C 47.410156 9.804688 47.613281 9.929688 48.105469 9.988281 L 48.105469 10.292969 C 47.773438 10.292969 47.449219 10.253906 47.117188 10.253906 C 46.804688 10.253906 46.480469 10.292969 46.167969 10.292969 C 45.390625 9.265625 44.726562 8.167969 44.070312 7 L 43.402344 7 L 43.402344 9.171875 C 43.402344 9.957031 43.765625 9.988281 44.230469 9.988281 L 44.414062 9.988281 L 44.414062 10.292969 C 43.835938 10.292969 43.253906 10.25 42.675781 10.25 C 42.191406 10.25 41.71875 10.289062 41.210938 10.289062 L 41.210938 9.984375 L 41.394531 9.984375 C 41.765625 9.984375 42.109375 9.8125 42.109375 9.4375 Z M 42.113281 4.273438 "/>
<path style=" stroke:none;fill-rule:nonzero;fill:rgb(13.72549%,12.156863%,12.54902%);fill-opacity:1;" d="M 50.664062 9.128906 C 50.664062 9.839844 50.984375 9.929688 51.710938 9.929688 C 53.429688 9.929688 54.320312 8.492188 54.320312 6.925781 C 54.320312 4.242188 52.96875 3.570312 51.355469 3.570312 C 51.121094 3.570312 50.890625 3.601562 50.667969 3.621094 Z M 48.480469 9.988281 L 48.621094 9.988281 C 48.984375 9.988281 49.371094 9.941406 49.371094 9.410156 L 49.375 4.085938 C 49.375 3.558594 48.988281 3.507812 48.625 3.507812 L 48.484375 3.507812 L 48.484375 3.203125 C 48.789062 3.203125 49.453125 3.242188 50.101562 3.242188 C 50.746094 3.242188 51.292969 3.203125 51.726562 3.203125 C 54.210938 3.210938 55.734375 4.609375 55.734375 6.734375 C 55.734375 8.765625 54.035156 10.421875 51.984375 10.296875 C 51.539062 10.277344 50.832031 10.257812 50.144531 10.253906 C 49.457031 10.253906 48.742188 10.292969 48.480469 10.292969 Z M 48.480469 9.988281 "/>
<path style=" stroke:none;fill-rule:nonzero;fill:rgb(13.72549%,12.156863%,12.54902%);fill-opacity:1;" d="M 9.078125 21.152344 C 9.078125 21.976562 9.523438 21.996094 10.039062 21.996094 L 10.199219 21.996094 L 10.199219 22.300781 C 9.683594 22.300781 9.179688 22.261719 8.664062 22.257812 C 8.109375 22.257812 7.5625 22.300781 6.988281 22.300781 L 6.988281 21.992188 L 7.148438 21.992188 C 7.453125 21.992188 7.785156 21.984375 7.785156 21.171875 L 7.789062 16.3125 C 7.789062 15.632812 7.597656 15.511719 7.113281 15.511719 L 6.992188 15.511719 L 6.992188 15.207031 C 7.355469 15.207031 7.890625 15.246094 8.40625 15.25 C 8.933594 15.25 9.425781 15.207031 9.882812 15.207031 C 11.253906 15.207031 12.253906 15.667969 12.253906 17.152344 C 12.253906 18.339844 11.414062 19.101562 10.300781 19.210938 C 9.988281 19.234375 9.726562 19.234375 9.492188 19.230469 L 9.492188 18.925781 L 9.707031 18.925781 C 10.523438 18.925781 10.898438 18.195312 10.898438 17.191406 C 10.898438 16.214844 10.414062 15.574219 9.375 15.574219 L 9.082031 15.574219 Z M 9.078125 21.152344 "/>
<path style=" stroke:none;fill-rule:nonzero;fill:rgb(13.72549%,12.156863%,12.54902%);fill-opacity:1;" d="M 16.664062 22.015625 C 18.621094 22.015625 18.96875 20.277344 18.96875 18.792969 C 18.96875 17.3125 18.175781 15.511719 16.496094 15.511719 C 14.730469 15.511719 14.203125 17.09375 14.203125 18.453125 C 14.203125 20.273438 15.027344 22.011719 16.664062 22.015625 M 16.519531 15.0625 C 18.667969 15.0625 20.386719 16.40625 20.382812 18.574219 C 20.382812 20.910156 18.714844 22.460938 16.5625 22.460938 C 14.421875 22.460938 12.785156 20.992188 12.789062 18.808594 C 12.789062 16.695312 14.417969 15.0625 16.519531 15.0625 "/>
<path style=" stroke:none;fill-rule:nonzero;fill:rgb(13.72549%,12.156863%,12.54902%);fill-opacity:1;" d="M 25.085938 22.019531 C 27.042969 22.019531 27.390625 20.285156 27.390625 18.800781 C 27.390625 17.320312 26.597656 15.519531 24.921875 15.515625 C 23.152344 15.515625 22.625 17.101562 22.625 18.460938 C 22.625 20.28125 23.449219 22.019531 25.085938 22.019531 M 24.941406 15.070312 C 27.089844 15.070312 28.808594 16.414062 28.804688 18.578125 C 28.804688 20.917969 27.136719 22.46875 24.984375 22.46875 C 22.84375 22.46875 21.210938 21 21.210938 18.816406 C 21.210938 16.703125 22.839844 15.070312 24.941406 15.070312 "/>
<path style=" stroke:none;fill-rule:nonzero;fill:rgb(13.72549%,12.156863%,12.54902%);fill-opacity:1;" d="M 31.644531 18.664062 L 32.136719 18.664062 C 33.148438 18.664062 33.695312 18.277344 33.695312 17.078125 C 33.695312 16.175781 33.121094 15.597656 32.222656 15.59375 C 31.917969 15.59375 31.785156 15.625 31.644531 15.636719 Z M 30.351562 16.304688 C 30.351562 15.5625 29.949219 15.53125 29.636719 15.53125 L 29.453125 15.53125 L 29.453125 15.226562 C 29.777344 15.226562 30.402344 15.269531 31.019531 15.269531 C 31.625 15.269531 32.109375 15.230469 32.644531 15.230469 C 33.917969 15.230469 35.046875 15.578125 35.046875 17.019531 C 35.046875 17.9375 34.441406 18.492188 33.640625 18.808594 L 35.367188 21.410156 C 35.648438 21.839844 35.851562 21.960938 36.347656 22.023438 L 36.347656 22.328125 C 36.011719 22.328125 35.691406 22.285156 35.355469 22.285156 C 35.042969 22.285156 34.71875 22.324219 34.40625 22.324219 C 33.628906 21.296875 32.964844 20.199219 32.308594 19.03125 L 31.644531 19.03125 L 31.644531 21.207031 C 31.644531 21.988281 32.007812 22.019531 32.46875 22.019531 L 32.652344 22.019531 L 32.652344 22.324219 C 32.078125 22.324219 31.492188 22.28125 30.914062 22.28125 C 30.429688 22.28125 29.957031 22.320312 29.453125 22.320312 L 29.453125 22.015625 L 29.632812 22.015625 C 30.007812 22.015625 30.351562 21.84375 30.351562 21.46875 L 30.355469 16.304688 Z M 30.351562 16.304688 "/>
<path style=" stroke:none;fill-rule:nonzero;fill:rgb(13.72549%,12.156863%,12.54902%);fill-opacity:1;" d="M 35.996094 17.792969 C 36.441406 17.714844 37.035156 17.429688 37.039062 16.929688 C 37.039062 16.625 36.816406 16.566406 36.601562 16.484375 C 36.390625 16.402344 36.179688 16.300781 36.179688 15.925781 C 36.179688 15.488281 36.511719 15.234375 36.917969 15.234375 C 37.503906 15.234375 37.804688 15.742188 37.804688 16.292969 C 37.804688 17.257812 36.988281 17.867188 36.136719 18.097656 Z M 35.996094 17.792969 "/>
<path style=" stroke:none;fill-rule:nonzero;fill:rgb(13.72549%,12.156863%,12.54902%);fill-opacity:1;" d="M 42.347656 16.742188 C 42.277344 16.082031 41.855469 15.453125 41.160156 15.449219 C 40.359375 15.449219 39.917969 15.929688 39.914062 16.730469 C 39.914062 18.417969 42.945312 17.910156 42.941406 20.351562 C 42.941406 21.753906 41.789062 22.484375 40.496094 22.484375 C 39.929688 22.484375 39.386719 22.277344 38.890625 22.023438 C 38.839844 21.503906 38.769531 20.996094 38.722656 20.480469 L 39.003906 20.417969 C 39.125 21.28125 39.609375 22.035156 40.566406 22.035156 C 41.253906 22.035156 41.808594 21.601562 41.8125 20.878906 C 41.8125 19.078125 38.84375 19.636719 38.84375 17.1875 C 38.84375 15.867188 39.777344 15.085938 41.078125 15.085938 C 41.359375 15.085938 42.21875 15.199219 42.53125 15.238281 C 42.53125 15.714844 42.570312 16.203125 42.632812 16.691406 Z M 42.347656 16.742188 "/>
<path style=" stroke:none;fill-rule:nonzero;fill:rgb(92.941176%,10.588235%,18.039216%);fill-opacity:1;" d="M 20.496094 0.921875 L 0.371094 0.921875 L 0.371094 0.542969 L 20.496094 0.542969 Z M 20.496094 13.089844 L 0.371094 13.089844 L 0.371094 12.714844 L 20.496094 12.714844 Z M 20.496094 24.925781 L 0.371094 24.925781 L 0.371094 24.550781 L 20.496094 24.550781 Z M 20.496094 24.925781 "/>
</g>
</svg>
